<?xml version="1.0" encoding="utf-8"?>
<svg version="1.1" id="Layer_1" xmlns="http://www.w3.org/2000/svg" xmlns:xlink="http://www.w3.org/1999/xlink" x="0px" y="0px"
   viewBox="0 0 612 792" style="enable-background:new 0 0 612 792;" xml:space="preserve">
<title>IT WON'T BE LONG NOW - GUILTY REMNANT</title>
<g>
  <path d="M264.9,63.9h15.4v1.5c-2.4,0.5-3.6,2-3.6,4.5v59.3c0,2.7,1.2,4.3,3.6,4.8v1.5H265v-1.5
    c2.4-0.8,3.6-2.3,3.6-4.5v-59c0-1.3-0.3-2.4-0.9-3.3c-0.6-0.9-1.5-1.5-2.8-1.9V63.9z"/>
  <path d="M293.1,63.9h64.1l5.3,10.5h-1.8c-1.1-1.3-2.4-2.3-3.9-3.1c-1.5-0.8-3.1-1.2-4.6-1.2h-22.9v58.8
    c0,1.3,0.3,2.4,1,3.4c0.6,1,1.6,1.6,3,1.9v1.5h-15.4v-1.5c2.3-0.7,3.4-2.1,3.4-4.2V70.1h-21.7c-2.3,0-4.3,0.4-5.9,1.2
    c-1.7,0.8-3,1.9-4.1,3.3h-1.7L293.1,63.9z"/>
  <path d="M166.3,185.1h15.4v1.5c-2.2,0.2-3.2,1-3.2,2.3c0,0.6,0.2,1.5,0.7,2.7l19.3,52.3l17.6-50.8
    c0.6-1.7,0.9-2.9,0.9-3.6c0-1.6-0.9-2.6-2.8-2.9v-1.5h13.6v1.5c-1.1,0-2.1,0.7-3.1,2.1c-1,1.4-1.7,2.9-2.3,4.5l-22.5,65.5h-4.4
    l-15.7-42.9c-1.3-3.4-3-8.3-5.2-14.7c-0.6-1.8-1.1-3.5-1.6-4.9c-1.3,3.9-2.5,7.6-3.7,11c-1.2,3.4-2.4,6.9-3.7,10.5l-14.3,41.1h-4.6
    l-23.4-64.9c-0.6-1.8-1.3-3.4-2.2-4.6c-0.9-1.3-2-2.1-3.2-2.5v-1.5h16v1.5c-1,0-1.8,0.3-2.2,1c-0.5,0.7-0.7,1.5-0.7,2.5
    c0,0.7,0.1,1.3,0.3,1.9l18.7,52.4l18.3-51.9c0.5-1.4,0.7-2.4,0.7-3c0-1.2-0.8-2.2-2.4-2.9V185.1z"/>
  <path d="M252.8,255.9c-4.9-2.3-8.9-5.3-12.2-9c-3.2-3.7-5.7-7.8-7.3-12.2c-1.7-4.4-2.5-8.7-2.5-13c0-5.3,1-10.3,3-15
    c2-4.7,4.8-8.9,8.4-12.5c3.6-3.6,7.8-6.4,12.7-8.4c4.8-2,10-3,15.6-3c5.8,0,11.1,1.1,15.9,3.2c4.8,2.1,8.9,5,12.2,8.6
    c3.4,3.6,5.9,7.7,7.7,12.3c1.8,4.6,2.6,9.2,2.6,13.9c0,5.1-1,10-2.9,14.7c-1.9,4.7-4.6,8.8-8.1,12.4c-3.5,3.6-7.7,6.4-12.5,8.4
    c-4.8,2-10.1,3-15.8,3C263.2,259.3,257.6,258.1,252.8,255.9z M282.8,250.9c3.8-1.7,7-3.8,9.6-6.5c2.8-2.8,4.9-6,6.3-9.6
    c1.4-3.6,2.1-7.8,2.1-12.6c0-3.6-0.7-7.4-2.2-11.4c-1.5-3.9-3.6-7.6-6.5-11c-2.8-3.4-6.2-6.1-10.2-8.1c-4-2.1-8.4-3.1-13.1-3.1
    c-3.4,0-6.9,0.7-10.5,2c-3.6,1.3-6.8,3.4-9.8,6c-3,2.7-5.3,5.9-7.1,9.6c-1.8,3.8-2.7,8-2.7,12.6s0.9,9.2,2.8,13.6
    c1.9,4.4,4.6,8.4,8.1,11.9c3,3,6.2,5.3,9.6,6.8c3.5,1.5,7.4,2.2,11.8,2.2C275,253.4,278.9,252.6,282.8,250.9z"/>
  <path d="M319.8,185.1h12.4l49.9,55.9v-49.9c0-1.3-0.3-2.2-1-2.9c-0.7-0.6-1.7-1.2-3.1-1.6v-1.5h14.3v1.5
    c-2.7,0.5-4,2.2-4,4.9v65.2h-2.6l-55.4-62.1V249c0,4,1.4,6.1,4.3,6.4v1.5h-14.4v-1.5c1.1-0.2,2.1-0.7,2.8-1.4
    c0.7-0.7,1.1-1.7,1.1-2.9v-59c0-1.3-0.3-2.5-0.9-3.4c-0.6-0.9-1.7-1.6-3.3-1.9V185.1z"/>
  <path d="M408.1,187.9c1.1-0.9,2.6-2.4,4.3-4.3c0.3-0.3,0.6-0.6,0.7-0.7h2.1c1.1,1.1,2,2.5,2.7,4.1
    c0.6,1.6,1,3.1,1.1,4.7c-0.1,2.7-1,5.3-2.8,7.8c-1.8,2.5-4.1,4.8-6.8,7l-1.9-2.2c1.4-1.2,2.6-2.7,3.6-4.4c1-1.8,1.5-3.5,1.5-5.2
    c0-1.5-0.3-2.6-1-3.4c-0.6-0.8-1.7-1.3-3.2-1.6L408.1,187.9z"/>
  <path d="M435,185.1h64.1l5.3,10.5h-1.8c-1.1-1.3-2.4-2.3-3.9-3.1c-1.5-0.8-3.1-1.2-4.6-1.2h-22.9v58.8
    c0,1.3,0.3,2.4,1,3.4c0.6,1,1.6,1.6,3,1.9v1.5h-15.4v-1.5c2.3-0.7,3.4-2.1,3.4-4.2v-59.8h-21.7c-2.3,0-4.3,0.4-5.9,1.2
    c-1.7,0.8-3,1.9-4.1,3.3h-1.7L435,185.1z"/>
  <path d="M251.2,306.4h27.3c2.8,0,5.5,0.3,8.1,0.8c2.6,0.5,4.9,1.4,6.9,2.6c2.1,1.2,3.7,2.9,4.9,4.9
    c1.2,2.1,1.8,4.6,1.8,7.7c0,4.8-1.4,8.4-4.1,11c-2.8,2.5-6.6,4.2-11.4,5c6.2,0.3,11.2,2.2,15,5.7c3.8,3.5,5.8,8.1,5.8,13.8
    c0,6.3-2.1,11.2-6.3,14.7c-4.2,3.6-9.4,5.4-15.7,5.4h-31.8v-1.4c1-0.3,1.8-0.8,2.5-1.5c0.6-0.7,1-1.6,1-2.6v-59.9
    c0-1.2-0.3-2.2-1-3.1c-0.7-0.8-1.6-1.4-2.7-1.6L251.2,306.4z M263.1,371.9h16.9c3.9,0,7.1-0.5,9.4-1.5c2.4-1,4.2-2.3,5.3-3.8
    c1.1-1.5,1.9-3,2.2-4.4c0.3-1.4,0.5-2.9,0.5-4.4c0-3.9-0.9-7-2.8-9.4c-1.9-2.4-4.1-4.1-6.7-5.1c-2.6-1-5.1-1.7-7.3-1.9
    c-2.3-0.2-4.4-0.4-6.5-0.4h-7.1v-4.8h7.5c2.3,0,4.5-0.2,6.6-0.6c2.1-0.4,4-1.1,5.8-2c1.8-0.9,3.1-2.3,4.2-4c1-1.7,1.6-3.8,1.6-6.2
    c0-2.1-0.4-3.8-1.3-5.3c-0.9-1.4-2-2.5-3.5-3.3c-1.4-0.8-3.1-1.4-4.8-1.7c-1.8-0.3-3.7-0.5-5.6-0.5h-14.1V371.9z"/>
  <path d="M316,306.3h49.2l4.2,10.7h-1.7c-1.1-1.4-2.6-2.5-4.2-3.3c-1.7-0.8-4-1.2-7-1.2h-28.8v22.6h33.2
    c1.1,0,2.1-0.4,3-1.1c0.9-0.7,1.5-1.6,1.6-2.6h1.4v13.3h-1.4c-0.5-2.4-2.1-3.5-4.6-3.5h-33.2v30.5h29.8c3,0,5.2-0.4,6.7-1.1
    c1.5-0.7,3-1.9,4.4-3.6h1.8l-4.2,10.8h-50v-1.5c1-0.3,1.9-0.8,2.5-1.5c0.7-0.7,1-1.5,1-2.3V313c0-2.6-1.2-4.3-3.7-5.2V306.3z"/>
  <path d="M159.5,427.5H175v1.5c-2.5,0.7-3.7,2.4-3.7,4.9v59.3h29.5c2.9,0,5.2-0.4,6.8-1.3c1.6-0.9,3.1-2.3,4.3-4.2h1.7
    l-3.2,11.5h-50.5v-1.5c0.9-0.1,1.8-0.6,2.4-1.3c0.7-0.7,1-1.5,1-2.3v-60.4c0-2.6-1.2-4.1-3.7-4.6V427.5z"/>
  <path d="M242.4,498.3c-4.9-2.3-8.9-5.3-12.2-9c-3.2-3.7-5.7-7.8-7.3-12.2c-1.7-4.4-2.5-8.7-2.5-13c0-5.3,1-10.3,3-15
    c2-4.7,4.8-8.9,8.4-12.5c3.6-3.6,7.8-6.4,12.7-8.4c4.8-2,10-3,15.6-3c5.8,0,11.1,1.1,15.9,3.2c4.8,2.1,8.9,5,12.2,8.6
    c3.4,3.6,5.9,7.7,7.7,12.3c1.8,4.6,2.6,9.2,2.6,13.9c0,5.1-1,10-2.9,14.7c-1.9,4.7-4.6,8.8-8.1,12.4c-3.5,3.6-7.7,6.4-12.5,8.4
    c-4.8,2-10.1,3-15.8,3C252.9,501.7,247.3,500.5,242.4,498.3z M272.4,493.3c3.8-1.7,7-3.8,9.6-6.5c2.8-2.8,4.9-6,6.3-9.6
    c1.4-3.6,2.1-7.8,2.1-12.6c0-3.6-0.7-7.4-2.2-11.4c-1.5-3.9-3.6-7.6-6.5-11c-2.8-3.4-6.2-6.1-10.2-8.1c-4-2.1-8.4-3.1-13.1-3.1
    c-3.4,0-6.9,0.7-10.5,2c-3.6,1.3-6.8,3.4-9.8,6c-3,2.7-5.3,5.9-7.1,9.6c-1.8,3.8-2.7,8-2.7,12.6s0.9,9.2,2.8,13.6
    c1.9,4.4,4.6,8.4,8.1,11.9c3,3,6.2,5.3,9.6,6.8c3.5,1.5,7.4,2.2,11.8,2.2C264.7,495.8,268.6,495,272.4,493.3z"/>
  <path d="M309.4,427.5h12.4l49.9,55.9v-49.9c0-1.3-0.3-2.2-1-2.9c-0.7-0.6-1.7-1.2-3.1-1.6v-1.5h14.3v1.5
    c-2.7,0.5-4,2.2-4,4.9v65.2h-2.6l-55.4-62.1v54.2c0,4,1.4,6.1,4.3,6.4v1.5h-14.4v-1.5c1.1-0.2,2.1-0.7,2.8-1.4
    c0.7-0.7,1.1-1.7,1.1-2.9v-59c0-1.3-0.3-2.5-0.9-3.4c-0.6-0.9-1.7-1.6-3.3-1.9V427.5z"/>
  <path d="M459.1,490.3c-4.2,3.6-8.8,6.4-13.5,8.2c-4.8,1.8-9.6,2.7-14.4,2.7c-5.7,0-10.9-1-15.6-3
    c-4.7-2-8.7-4.7-11.9-8.2c-3.3-3.5-5.8-7.5-7.5-12c-1.7-4.5-2.6-9.2-2.6-14.1c0-5.1,0.9-10,2.8-14.6c1.9-4.6,4.5-8.7,7.9-12.3
    c3.4-3.5,7.4-6.3,12-8.2c4.6-2,9.6-2.9,14.9-2.9c4.2,0,7.8,0.4,10.8,1.3c3,0.9,5.8,2.2,8.5,3.9c0.8-1.1,1.4-2.2,1.9-3.3h1.8
    l3.3,16.7l-1.6,0.1c-3.4-4.4-7.3-7.8-11.6-9.9c-4.3-2.2-8.8-3.3-13.3-3.3c-4.1,0-8,0.8-11.6,2.5c-3.6,1.7-6.7,4-9.3,7
    c-2.6,3-4.6,6.4-6.1,10.3c-1.4,3.9-2.2,7.9-2.2,12.2c0,4.6,0.8,8.9,2.4,12.8c1.6,3.9,3.8,7.3,6.6,10.1c2.8,2.8,6,5,9.6,6.5
    c3.6,1.5,7.4,2.3,11.4,2.3c6.6,0,13-2.1,19.3-6.3V468c0-2.7-1.2-4.4-3.7-5v-1.3h15.5v1.4c-1,0.3-1.9,0.8-2.6,1.6s-1.1,1.9-1.1,3.2
    V490.3z"/>
  <path d="M175.9,548.7h12.4l49.9,55.9v-49.9c0-1.3-0.3-2.2-1-2.9c-0.7-0.6-1.7-1.2-3.1-1.6v-1.5h14.3v1.5
    c-2.7,0.5-4,2.2-4,4.9v65.2h-2.6l-55.4-62.1v54.2c0,4,1.4,6.1,4.3,6.4v1.5h-14.4v-1.5c1.1-0.2,2.1-0.7,2.8-1.4
    c0.7-0.7,1.1-1.7,1.1-2.9v-59c0-1.3-0.3-2.5-0.9-3.4c-0.6-0.9-1.7-1.6-3.3-1.9V548.7z"/>
  <path d="M281.5,619.5c-4.9-2.3-8.9-5.3-12.2-9c-3.2-3.7-5.7-7.8-7.3-12.2c-1.7-4.4-2.5-8.7-2.5-13c0-5.3,1-10.3,3-15
    c2-4.7,4.8-8.9,8.4-12.5c3.6-3.6,7.8-6.4,12.7-8.4c4.8-2,10-3,15.6-3c5.8,0,11.1,1.1,15.9,3.2c4.8,2.1,8.9,5,12.2,8.6
    c3.4,3.6,5.9,7.7,7.7,12.3c1.8,4.6,2.6,9.2,2.6,13.9c0,5.1-1,10-2.9,14.7c-1.9,4.7-4.6,8.8-8.1,12.4c-3.5,3.6-7.7,6.4-12.5,8.4
    c-4.8,2-10.1,3-15.8,3C292,622.9,286.4,621.7,281.5,619.5z M311.5,614.5c3.8-1.7,7-3.8,9.6-6.5c2.8-2.8,4.9-6,6.3-9.6
    c1.4-3.6,2.1-7.8,2.1-12.6c0-3.6-0.7-7.4-2.2-11.4c-1.5-3.9-3.6-7.6-6.5-11c-2.8-3.4-6.2-6.1-10.2-8.1c-4-2.1-8.4-3.1-13.1-3.1
    c-3.4,0-6.9,0.7-10.5,2c-3.6,1.3-6.8,3.4-9.8,6c-3,2.7-5.3,5.9-7.1,9.6c-1.8,3.8-2.7,8-2.7,12.6s0.9,9.2,2.8,13.6
    c1.9,4.4,4.6,8.4,8.1,11.9c3,3,6.2,5.3,9.6,6.8c3.5,1.5,7.4,2.2,11.8,2.2C303.8,617,307.7,616.2,311.5,614.5z"/>
  <path d="M388,548.7h15.4v1.5c-2.2,0.2-3.2,1-3.2,2.3c0,0.6,0.2,1.5,0.7,2.7l19.3,52.3l17.6-50.8
    c0.6-1.7,0.9-2.9,0.9-3.6c0-1.6-0.9-2.6-2.8-2.9v-1.5h13.6v1.5c-1.1,0-2.1,0.7-3.1,2.1c-1,1.4-1.7,2.9-2.3,4.5l-22.5,65.5h-4.4
    l-15.7-42.9c-1.3-3.4-3-8.3-5.2-14.7c-0.6-1.8-1.1-3.5-1.6-4.9c-1.3,3.9-2.5,7.6-3.7,11c-1.2,3.4-2.4,6.9-3.7,10.5L373,622.4h-4.6
    l-23.4-64.9c-0.6-1.8-1.3-3.4-2.2-4.6c-0.9-1.3-2-2.1-3.2-2.5v-1.5h16v1.5c-1,0-1.8,0.3-2.2,1c-0.5,0.7-0.7,1.5-0.7,2.5
    c0,0.7,0.1,1.3,0.3,1.9l18.7,52.4l18.3-51.9c0.5-1.4,0.7-2.4,0.7-3c0-1.2-0.8-2.2-2.4-2.9V548.7z"/>
</g>
<g>
  <path d="M209.5,714.9c0.3,0.3,0.5,0.8,0.5,1.5c0,0.6-0.2,1.1-0.5,1.4c-0.4,0.3-0.9,0.4-1.5,0.4c-0.7,0-1.2-0.2-1.6-0.5
    c-0.3-0.3-0.5-0.8-0.5-1.5c0-0.6,0.2-1,0.5-1.4c0.3-0.3,0.8-0.5,1.5-0.5C208.7,714.4,209.2,714.6,209.5,714.9z"/>
  <path d="M230.3,721.1c-0.8,0.7-1.7,1.3-2.7,1.6c-0.9,0.4-1.9,0.5-2.9,0.5c-1.1,0-2.2-0.2-3.1-0.6
    c-0.9-0.4-1.7-0.9-2.4-1.6c-0.6-0.7-1.1-1.5-1.5-2.4c-0.3-0.9-0.5-1.8-0.5-2.8c0-1,0.2-2,0.5-2.9s0.9-1.7,1.6-2.4
    c0.7-0.7,1.5-1.2,2.4-1.6c0.9-0.4,1.9-0.6,3-0.6c0.8,0,1.5,0.1,2.1,0.3s1.2,0.4,1.7,0.8c0.2-0.2,0.3-0.4,0.4-0.7h0.4l0.7,3.3
    l-0.3,0c-0.7-0.9-1.4-1.5-2.3-2c-0.9-0.4-1.7-0.7-2.6-0.7c-0.8,0-1.6,0.2-2.3,0.5c-0.7,0.3-1.3,0.8-1.8,1.4c-0.5,0.6-0.9,1.3-1.2,2
    c-0.3,0.8-0.4,1.6-0.4,2.4c0,0.9,0.2,1.8,0.5,2.5c0.3,0.8,0.7,1.4,1.3,2c0.6,0.6,1.2,1,1.9,1.3c0.7,0.3,1.5,0.5,2.2,0.5
    c1.3,0,2.6-0.4,3.8-1.2v-4.1c0-0.5-0.2-0.9-0.7-1v-0.3h3.1v0.3c-0.2,0.1-0.4,0.2-0.5,0.3s-0.2,0.4-0.2,0.6V721.1z"/>
  <path d="M243.1,708.7h2.9v0.3c-0.5,0.1-0.8,0.5-0.8,1v7.6c0,1.7-0.5,3.1-1.6,4.1c-1,1-2.5,1.6-4.2,1.6
    c-0.7,0-1.5-0.1-2.2-0.3c-0.7-0.2-1.4-0.5-1.9-1c-0.6-0.5-1-1.1-1.4-1.9c-0.3-0.8-0.5-1.8-0.5-2.9V710c0-0.5-0.2-0.8-0.7-1v-0.3
    h3.1v0.3c-0.3,0.1-0.5,0.2-0.6,0.4s-0.2,0.4-0.2,0.7v6.9c0,1.7,0.4,3,1.2,3.8c0.4,0.4,0.9,0.7,1.5,1c0.6,0.2,1.3,0.3,2,0.3
    c0.6,0,1.2-0.1,1.7-0.3c0.5-0.2,1-0.5,1.3-0.8c0.4-0.4,0.8-0.9,0.9-1.5c0.2-0.5,0.3-1.2,0.3-2V710c0-0.5-0.3-0.9-0.8-1V708.7z"/>
  <path d="M248.3,708.7h3v0.3c-0.5,0.1-0.7,0.4-0.7,0.9v11.7c0,0.5,0.2,0.9,0.7,1v0.3h-3v-0.3c0.5-0.2,0.7-0.5,0.7-0.9
    V710c0-0.3-0.1-0.5-0.2-0.7c-0.1-0.2-0.3-0.3-0.6-0.4V708.7z"/>
  <path d="M253.7,708.7h3.1v0.3c-0.5,0.1-0.7,0.5-0.7,1v11.7h5.8c0.6,0,1-0.1,1.3-0.3c0.3-0.2,0.6-0.5,0.9-0.8h0.3
    l-0.6,2.3h-10v-0.3c0.2,0,0.3-0.1,0.5-0.3c0.1-0.1,0.2-0.3,0.2-0.5v-12c0-0.5-0.2-0.8-0.7-0.9V708.7z"/>
  <path d="M262.8,708.7h12.7l1,2.1h-0.4c-0.2-0.3-0.5-0.5-0.8-0.6s-0.6-0.2-0.9-0.2H270v11.6c0,0.3,0.1,0.5,0.2,0.7
    c0.1,0.2,0.3,0.3,0.6,0.4v0.3h-3v-0.3c0.5-0.1,0.7-0.4,0.7-0.8v-11.8h-4.3c-0.5,0-0.8,0.1-1.2,0.2s-0.6,0.4-0.8,0.7h-0.3
    L262.8,708.7z"/>
  <path d="M276.8,708.7h3.3v0.3c-0.3,0.1-0.5,0.2-0.5,0.4c0,0.1,0.1,0.2,0.2,0.4l4.1,5.6l3.7-5.4
    c0.2-0.3,0.3-0.5,0.3-0.7c0-0.1,0-0.2-0.1-0.3s-0.2-0.1-0.4-0.1v-0.3h3v0.3c-0.3,0.1-0.5,0.2-0.8,0.4c-0.2,0.2-0.5,0.5-0.7,0.8
    l-4.5,6.6v4.9c0,0.3,0.1,0.5,0.2,0.6c0.1,0.2,0.3,0.3,0.5,0.3v0.3h-3v-0.3c0.2-0.1,0.4-0.2,0.5-0.4c0.1-0.2,0.2-0.3,0.2-0.5v-5.1
    L278,710l0,0c-0.2-0.3-0.4-0.6-0.6-0.7c-0.2-0.2-0.4-0.2-0.6-0.2V708.7z"/>
  <path d="M296.6,708.7h5.8c0.5,0,0.9,0.1,1.4,0.2c0.5,0.1,0.9,0.4,1.3,0.7s0.7,0.7,1,1.1c0.2,0.5,0.4,1,0.4,1.6
    c0,1.1-0.4,2-1.1,2.6c-0.8,0.6-1.8,0.9-3.1,1c0.6,0.3,1.1,0.7,1.6,1s0.9,0.8,1.2,1.2c0.4,0.4,0.7,0.9,1,1.4c0.3,0.5,0.7,1.1,1,1.7
    c0.3,0.5,0.5,0.8,0.6,1c0.2,0.2,0.3,0.3,0.5,0.4v0.3H305v-0.3c0.2,0,0.3-0.1,0.4-0.2c0.1-0.1,0.1-0.2,0.1-0.4
    c0-0.4-0.2-0.8-0.5-1.4c-0.3-0.6-0.8-1.2-1.3-1.9s-1.2-1.2-1.9-1.8c-0.7-0.5-1.4-0.9-2.1-1.1v-0.9h1.6c1.4,0,2.3-0.3,2.9-0.9
    c0.4-0.4,0.7-1,0.7-1.7c0-0.7-0.3-1.3-0.9-1.8c-0.6-0.4-1.3-0.7-2.3-0.7h-2.8v11.5c0,0.3,0.1,0.6,0.2,0.8c0.1,0.2,0.3,0.3,0.6,0.3
    v0.3h-3v-0.3c0.5-0.1,0.7-0.5,0.7-1v-11.4c0-0.6-0.2-1-0.7-1.1V708.7z"/>
  <path d="M309.6,708.7h9.7l0.8,2.1h-0.3c-0.2-0.3-0.5-0.5-0.8-0.7c-0.3-0.2-0.8-0.2-1.4-0.2h-5.7v4.5h6.6
    c0.2,0,0.4-0.1,0.6-0.2c0.2-0.1,0.3-0.3,0.3-0.5h0.3v2.6h-0.3c-0.1-0.5-0.4-0.7-0.9-0.7h-6.6v6h5.9c0.6,0,1-0.1,1.3-0.2
    c0.3-0.1,0.6-0.4,0.9-0.7h0.4l-0.8,2.1h-9.9v-0.3c0.2-0.1,0.4-0.2,0.5-0.3c0.1-0.1,0.2-0.3,0.2-0.5V710c0-0.5-0.2-0.9-0.7-1V708.7z
    "/>
  <path d="M335.5,708.7h3.1v0.3c-0.3,0-0.5,0.1-0.6,0.3s-0.2,0.4-0.2,0.7c0,0,0,0.1,0,0.2c0,0.1,0,0.2,0,0.2l0.8,11.1
    c0,0.4,0.1,0.7,0.2,0.9c0.1,0.2,0.3,0.3,0.6,0.3v0.3h-3.1v-0.3c0.3-0.1,0.5-0.2,0.6-0.3c0.1-0.2,0.2-0.4,0.2-0.7c0-0.1,0-0.1,0-0.2
    c0-0.1,0-0.1,0-0.2l-0.8-11.1l-5.4,10.8h-0.3l-5.5-10.7l-0.7,10.9c0,0.1,0,0.1,0,0.2l0,0.2c0,0.4,0.1,0.6,0.2,0.8
    c0.1,0.2,0.3,0.3,0.5,0.3v0.3h-2.7v-0.3c0.5-0.1,0.8-0.4,0.8-1l0.7-11.1c0-0.1,0-0.1,0-0.2c0-0.1,0-0.1,0-0.2
    c0-0.3-0.1-0.6-0.2-0.8c-0.1-0.2-0.4-0.3-0.7-0.3v-0.3h3.2l4.8,9.4L335.5,708.7z"/>
  <path d="M341.5,708.7h2.5l9.9,11.1v-9.9c0-0.3-0.1-0.4-0.2-0.6c-0.1-0.1-0.3-0.2-0.6-0.3v-0.3h2.8v0.3
    c-0.5,0.1-0.8,0.4-0.8,1v12.9h-0.5l-11-12.3v10.7c0,0.8,0.3,1.2,0.9,1.3v0.3h-2.9v-0.3c0.2,0,0.4-0.1,0.6-0.3
    c0.1-0.1,0.2-0.3,0.2-0.6v-11.7c0-0.3-0.1-0.5-0.2-0.7c-0.1-0.2-0.3-0.3-0.7-0.4V708.7z"/>
  <path d="M364.7,708.3h0.7l6.3,13.4c0.1,0.3,0.3,0.5,0.4,0.7c0.1,0.1,0.3,0.2,0.5,0.3v0.3h-3v-0.3
    c0.3-0.1,0.5-0.2,0.5-0.5c0-0.2-0.1-0.4-0.2-0.7l-1.5-3.2h-7l-1.4,3c-0.2,0.3-0.2,0.6-0.2,0.8c0,0.3,0.2,0.4,0.5,0.6v0.3h-2.8v-0.3
    c0.3-0.1,0.5-0.2,0.6-0.4c0.1-0.2,0.3-0.4,0.4-0.7l0.1-0.2L364.7,708.3z M364.9,710.8L362,717h5.9L364.9,710.8z"/>
  <path d="M374,708.7h2.5l9.9,11.1v-9.9c0-0.3-0.1-0.4-0.2-0.6c-0.1-0.1-0.3-0.2-0.6-0.3v-0.3h2.8v0.3
    c-0.5,0.1-0.8,0.4-0.8,1v12.9H387l-11-12.3v10.7c0,0.8,0.3,1.2,0.9,1.3v0.3h-2.9v-0.3c0.2,0,0.4-0.1,0.5-0.3s0.2-0.3,0.2-0.6v-11.7
    c0-0.3-0.1-0.5-0.2-0.7c-0.1-0.2-0.3-0.3-0.7-0.4V708.7z"/>
  <path d="M390.8,708.7h12.7l1,2.1h-0.4c-0.2-0.3-0.5-0.5-0.8-0.6s-0.6-0.2-0.9-0.2h-4.5v11.6c0,0.3,0.1,0.5,0.2,0.7
    s0.3,0.3,0.6,0.4v0.3h-3v-0.3c0.5-0.1,0.7-0.4,0.7-0.8v-11.8H392c-0.5,0-0.8,0.1-1.2,0.2c-0.3,0.2-0.6,0.4-0.8,0.7h-0.3
    L390.8,708.7z"/>
  <path d="M414.5,714.9c0.3,0.3,0.5,0.8,0.5,1.5c0,0.6-0.2,1.1-0.5,1.4c-0.4,0.3-0.9,0.4-1.5,0.4c-0.7,0-1.2-0.2-1.6-0.5
    c-0.3-0.3-0.5-0.8-0.5-1.5c0-0.6,0.2-1,0.5-1.4c0.3-0.3,0.8-0.5,1.5-0.5C413.7,714.4,414.2,714.6,414.5,714.9z"/>
</g>
</svg>
