<?xml version="1.0" encoding="utf-8"?>
<svg version="1.1" id="Layer_1" xmlns="http://www.w3.org/2000/svg" xmlns:xlink="http://www.w3.org/1999/xlink" x="0px" y="0px"
   viewBox="0 0 612 792" style="enable-background:new 0 0 612 792;" xml:space="preserve">
<title>LET US SMOKE - GUILTY REMNANT</title>
<g>
  <path d="M186,164.6h19.9v2c-3.2,1-4.8,3.1-4.8,6.4v76.3h38c3.7,0,6.6-0.6,8.7-1.7c2.1-1.1,3.9-2.9,5.6-5.5h2.2
    l-4.2,14.8h-65v-2c1.2-0.2,2.3-0.7,3.1-1.7c0.9-1,1.3-2,1.3-3v-77.7c0-3.3-1.6-5.3-4.8-6V164.6z"/>
  <path d="M266.1,164.6h63.3l5.5,13.8h-2.2c-1.5-1.8-3.3-3.2-5.5-4.2c-2.2-1-5.2-1.5-9-1.5h-37.1v29.1h42.8
    c1.4,0,2.7-0.5,3.9-1.4c1.2-0.9,1.9-2,2.1-3.3h1.8v17.2h-1.8c-0.7-3-2.7-4.6-6-4.6h-42.8V249h38.4c3.8,0,6.7-0.5,8.6-1.4
    s3.8-2.4,5.7-4.6h2.3l-5.5,13.9h-64.4v-2c1.3-0.3,2.4-1,3.2-2c0.9-1,1.3-1.9,1.3-3v-76.8c0-3.4-1.6-5.6-4.8-6.6V164.6z"/>
  <path d="M351.1,164.6h82.5l6.8,13.5h-2.3c-1.4-1.6-3.1-3-5.1-4c-2-1-4-1.6-6-1.6h-29.5v75.7c0,1.6,0.4,3.1,1.2,4.4
    c0.8,1.3,2.1,2.1,3.8,2.4v2h-19.8v-2c2.9-0.9,4.4-2.7,4.4-5.5v-77h-28c-2.9,0-5.5,0.5-7.6,1.6c-2.1,1-3.9,2.5-5.3,4.3h-2.2
    L351.1,164.6z"/>
  <path d="M297.4,320.6H316v2c-3.5,0.9-5.2,2.9-5.2,6.2v49.7c0,11.3-3.4,20.3-10.2,27c-6.8,6.7-15.9,10.1-27.4,10.1
    c-4.9,0-9.6-0.6-14.2-1.9c-4.6-1.3-8.8-3.5-12.5-6.5c-3.8-3-6.8-7.1-9-12.3c-2.3-5.2-3.4-11.5-3.4-18.9V329c0-3.2-1.6-5.4-4.8-6.5
    v-2h20.1v2c-1.8,0.4-3.1,1.3-3.9,2.6c-0.8,1.3-1.2,2.8-1.2,4.5v44.6c0,11.3,2.6,19.5,7.9,24.7c2.6,2.7,5.9,4.8,9.8,6.3
    c3.9,1.5,8.2,2.3,12.8,2.3c4,0,7.8-0.7,11.3-2.1c3.6-1.4,6.5-3.2,8.7-5.5c2.9-2.9,4.9-6,6.1-9.6c1.2-3.5,1.8-7.9,1.8-13.2v-48.5
    c0-3.5-1.8-5.5-5.5-6.2V320.6z"/>
  <path d="M331.5,392.1c3,4.8,7.2,8.6,12.4,11.4c5.2,2.8,10.5,4.2,15.9,4.2c6.3,0,11.4-1.6,15.3-4.9s5.8-7.4,5.8-12.5
    c0-2.7-0.6-5.1-1.8-7.2c-1.2-2.1-2.8-4-4.9-5.7c-2-1.7-4.3-3.2-6.8-4.6c-2.5-1.3-5.6-2.9-9.3-4.7c-4.3-2.1-7.9-3.9-10.7-5.5
    c-2.8-1.6-5.4-3.4-7.7-5.5c-2.4-2.1-4.3-4.5-5.8-7.3c-1.5-2.8-2.2-6-2.2-9.6c0-6.2,2.3-11.4,6.9-15.6c4.6-4.2,11-6.2,19.1-6.2
    c4.9,0,9,0.5,12.2,1.4c3.2,1,6,2.2,8.5,3.6l3.1-3.9h2l3.8,19.8H385c-3.3-4.4-7.2-7.8-11.6-10c-4.5-2.3-9.2-3.4-14.2-3.4
    c-5.6,0-10.1,1.2-13.3,3.7c-3.2,2.5-4.8,5.7-4.8,9.6c0,2.2,0.5,4.2,1.6,6c1.1,1.8,2.6,3.4,4.4,4.9c1.9,1.4,3.9,2.8,6,4
    c2.2,1.2,5,2.6,8.6,4.3c4.5,2.2,8.3,4.1,11.2,5.7c3,1.6,5.8,3.7,8.5,6c2.7,2.4,4.8,5.2,6.4,8.5c1.6,3.2,2.4,7,2.4,11.1
    c0,2.2-0.4,4.7-1.2,7.5c-0.8,2.8-2.3,5.6-4.4,8.4c-2.1,2.8-5.1,5.1-9,7c-3.9,1.9-8.7,2.8-14.4,2.8c-4.1,0-7.7-0.4-10.9-1.3
    c-3.2-0.9-6.3-2.2-9.4-3.9l-2.9,4.2h-2.1l-7-22L331.5,392.1z"/>
  <path d="M80.3,548.1c3,4.8,7.2,8.6,12.4,11.4c5.2,2.8,10.6,4.2,15.9,4.2c6.3,0,11.4-1.6,15.3-4.9
    c3.9-3.2,5.9-7.4,5.9-12.5c0-2.7-0.6-5.1-1.8-7.2c-1.2-2.1-2.8-4-4.9-5.7c-2-1.7-4.3-3.2-6.8-4.6c-2.5-1.3-5.6-2.9-9.3-4.7
    c-4.3-2.1-7.9-3.9-10.7-5.5c-2.8-1.6-5.4-3.4-7.7-5.5c-2.4-2.1-4.3-4.5-5.8-7.3c-1.5-2.8-2.2-6-2.2-9.6c0-6.2,2.3-11.4,6.9-15.6
    c4.6-4.2,11-6.2,19.1-6.2c4.9,0,9,0.5,12.2,1.4c3.2,1,6,2.2,8.5,3.6l3.1-3.9h2l3.8,19.8h-2.5c-3.3-4.4-7.2-7.8-11.6-10
    c-4.5-2.3-9.2-3.4-14.2-3.4c-5.6,0-10.1,1.2-13.3,3.7c-3.2,2.5-4.8,5.7-4.8,9.6c0,2.2,0.5,4.2,1.6,6c1.1,1.8,2.6,3.4,4.4,4.9
    c1.9,1.4,3.9,2.8,6,4c2.2,1.2,5,2.6,8.6,4.3c4.5,2.2,8.3,4.1,11.2,5.7c3,1.6,5.8,3.7,8.5,6c2.7,2.4,4.8,5.2,6.4,8.5
    c1.6,3.2,2.4,7,2.4,11.1c0,2.2-0.4,4.7-1.2,7.5c-0.8,2.8-2.3,5.6-4.4,8.4c-2.1,2.8-5.1,5.1-9,7c-3.9,1.9-8.7,2.8-14.4,2.8
    c-4.1,0-7.7-0.4-10.9-1.3c-3.2-0.9-6.3-2.2-9.4-3.9l-2.9,4.2h-2.1l-7-22L80.3,548.1z"/>
  <path d="M237.6,476.6h20.3v2c-2,0.2-3.4,0.7-4.2,1.7c-0.8,1-1.2,2.4-1.2,4.3c0,0.2,0,0.5,0.1,1c0,0.7,0,1.1,0,1.3
    l4.9,71.9c0.2,2.9,0.6,4.9,1.4,6c0.8,1.1,2.1,1.9,3.9,2.2v2h-20.1v-2c1.7-0.3,2.9-1,3.6-2.1c0.7-1,1-2.6,1-4.7c0-0.3,0-0.7-0.1-1
    c0-0.5,0-0.9,0-1.2l-5.2-72.2L207.3,556h-2.1l-35.6-69.4l-4.6,70.8c0,0.4,0,0.8,0,1.2l-0.1,1c0,2.4,0.3,4.2,1,5.3
    c0.7,1.1,1.9,1.8,3.5,2v2h-17.7v-2c3.2-0.7,4.9-2.9,5.2-6.5l4.6-72.1c0-0.3,0-0.8,0-1.4c0.1-0.4,0.1-0.9,0.1-1.3
    c0-2.2-0.4-3.8-1.2-4.9c-0.8-1.1-2.3-1.8-4.7-2.1v-2h20.5l30.9,61.2L237.6,476.6z"/>
  <path d="M302.8,567.6c-6.3-2.9-11.5-6.8-15.7-11.6c-4.2-4.8-7.3-10.1-9.4-15.7c-2.1-5.7-3.2-11.2-3.2-16.7
    c0-6.8,1.3-13.2,3.8-19.3c2.6-6.1,6.2-11.5,10.8-16.1c4.6-4.6,10.1-8.3,16.3-10.9c6.2-2.6,12.9-3.9,20-3.9c7.5,0,14.3,1.4,20.4,4.1
    c6.2,2.7,11.4,6.4,15.7,11.1c4.3,4.7,7.6,10,9.9,15.9c2.3,5.9,3.4,11.9,3.4,17.9c0,6.6-1.2,12.9-3.7,18.9c-2.5,6-6,11.3-10.5,15.9
    c-4.5,4.6-9.9,8.2-16.1,10.8c-6.2,2.6-13,3.9-20.3,3.9C316.3,572,309.1,570.5,302.8,567.6z M341.4,561.2c4.9-2.2,9-4.9,12.4-8.3
    c3.6-3.6,6.3-7.8,8.1-12.3c1.8-4.6,2.7-10,2.7-16.2c0-4.7-1-9.6-2.9-14.6c-1.9-5.1-4.7-9.8-8.3-14.1c-3.6-4.3-8-7.8-13.1-10.5
    c-5.1-2.6-10.7-4-16.9-4c-4.4,0-8.9,0.9-13.5,2.6c-4.6,1.7-8.8,4.3-12.6,7.7c-3.8,3.4-6.9,7.6-9.2,12.4c-2.3,4.9-3.4,10.3-3.4,16.2
    s1.2,11.8,3.6,17.5c2.4,5.7,5.9,10.8,10.4,15.3c3.8,3.9,8,6.8,12.4,8.7c4.5,1.9,9.5,2.9,15.1,2.9
    C331.5,564.5,336.5,563.4,341.4,561.2z"/>
  <path d="M389.6,476.6h19.6l0.1,2c-3.2,1-4.8,3.2-4.8,6.5v29.4L439,485c2-1.7,3-3.2,3-4.4c0-1.3-0.9-2-2.7-2.1v-2h21.1
    v2c-1.6,0.6-3.7,1.7-6,3.3c-2.4,1.6-4.4,3.1-6.2,4.6L416,514.1c5.4,2.6,9.9,5,13.5,7.3c3.6,2.3,7.3,5.4,11.1,9.2
    c3.6,3.6,6.6,7.3,9,11c2.3,3.7,4.8,8.1,7.3,13.1c2,3.9,3.6,6.7,4.8,8.5c1.2,1.8,2.6,3,4.2,3.6v2h-21.2v-2c2.4-0.3,3.6-1.6,3.6-3.9
    c0-1.1-0.3-2.8-1-4.9c-0.7-2.2-1.8-4.7-3.2-7.5c-1.4-2.8-3.2-5.7-5.3-8.7c-2.1-3-4.6-5.9-7.3-8.6c-1.5-1.5-3.3-3-5.4-4.7
    c-2.1-1.6-4.4-3.2-6.9-4.7c-2.5-1.5-4.9-2.8-7.4-4c-2.5-1.1-4.8-2-7.1-2.6v43.2c0,1.4,0.5,2.7,1.4,3.9c0.9,1.2,2.1,2.1,3.6,2.6v2
    h-19.6v-2c1.5-0.3,2.6-1.1,3.3-2.2c0.7-1.1,1.1-2.4,1.1-3.9v-75.7c0-1.6-0.4-3.1-1.2-4.2c-0.8-1.2-2-2-3.5-2.4V476.6z"/>
  <path d="M472.7,476.6H536l5.5,13.8h-2.2c-1.5-1.8-3.3-3.2-5.5-4.2c-2.2-1-5.2-1.5-9-1.5h-37v29.1h42.8
    c1.4,0,2.7-0.5,3.9-1.4c1.2-0.9,1.9-2,2.1-3.3h1.8v17.2h-1.8c-0.7-3-2.7-4.6-6-4.6h-42.8V561h38.4c3.8,0,6.7-0.5,8.6-1.4
    s3.8-2.4,5.7-4.6h2.3l-5.5,13.9h-64.4v-2c1.3-0.3,2.4-1,3.2-2c0.9-1,1.3-1.9,1.3-3v-76.8c0-3.4-1.6-5.6-4.8-6.6V476.6z"/>
</g>
<g>
  <path d="M209.5,714.9c0.3,0.3,0.5,0.8,0.5,1.5c0,0.6-0.2,1.1-0.5,1.4c-0.4,0.3-0.9,0.4-1.5,0.4c-0.7,0-1.2-0.2-1.6-0.5
    c-0.3-0.3-0.5-0.8-0.5-1.5c0-0.6,0.2-1,0.5-1.4c0.3-0.3,0.8-0.5,1.5-0.5C208.7,714.4,209.2,714.6,209.5,714.9z"/>
  <path d="M230.3,721.1c-0.8,0.7-1.7,1.3-2.7,1.6c-0.9,0.4-1.9,0.5-2.9,0.5c-1.1,0-2.2-0.2-3.1-0.6
    c-0.9-0.4-1.7-0.9-2.4-1.6c-0.6-0.7-1.1-1.5-1.5-2.4c-0.3-0.9-0.5-1.8-0.5-2.8c0-1,0.2-2,0.5-2.9s0.9-1.7,1.6-2.4
    c0.7-0.7,1.5-1.2,2.4-1.6c0.9-0.4,1.9-0.6,3-0.6c0.8,0,1.5,0.1,2.1,0.3s1.2,0.4,1.7,0.8c0.2-0.2,0.3-0.4,0.4-0.7h0.4l0.7,3.3
    l-0.3,0c-0.7-0.9-1.4-1.5-2.3-2c-0.9-0.4-1.7-0.7-2.6-0.7c-0.8,0-1.6,0.2-2.3,0.5c-0.7,0.3-1.3,0.8-1.8,1.4c-0.5,0.6-0.9,1.3-1.2,2
    c-0.3,0.8-0.4,1.6-0.4,2.4c0,0.9,0.2,1.8,0.5,2.5c0.3,0.8,0.7,1.4,1.3,2c0.6,0.6,1.2,1,1.9,1.3c0.7,0.3,1.5,0.5,2.2,0.5
    c1.3,0,2.6-0.4,3.8-1.2v-4.1c0-0.5-0.2-0.9-0.7-1v-0.3h3.1v0.3c-0.2,0.1-0.4,0.2-0.5,0.3s-0.2,0.4-0.2,0.6V721.1z"/>
  <path d="M243.1,708.7h2.9v0.3c-0.5,0.1-0.8,0.5-0.8,1v7.6c0,1.7-0.5,3.1-1.6,4.1c-1,1-2.5,1.6-4.2,1.6
    c-0.7,0-1.5-0.1-2.2-0.3c-0.7-0.2-1.4-0.5-1.9-1c-0.6-0.5-1-1.1-1.4-1.9c-0.3-0.8-0.5-1.8-0.5-2.9V710c0-0.5-0.2-0.8-0.7-1v-0.3
    h3.1v0.3c-0.3,0.1-0.5,0.2-0.6,0.4s-0.2,0.4-0.2,0.7v6.9c0,1.7,0.4,3,1.2,3.8c0.4,0.4,0.9,0.7,1.5,1c0.6,0.2,1.3,0.3,2,0.3
    c0.6,0,1.2-0.1,1.7-0.3c0.5-0.2,1-0.5,1.3-0.8c0.4-0.4,0.8-0.9,0.9-1.5c0.2-0.5,0.3-1.2,0.3-2V710c0-0.5-0.3-0.9-0.8-1V708.7z"/>
  <path d="M248.3,708.7h3v0.3c-0.5,0.1-0.7,0.4-0.7,0.9v11.7c0,0.5,0.2,0.9,0.7,1v0.3h-3v-0.3c0.5-0.2,0.7-0.5,0.7-0.9
    V710c0-0.3-0.1-0.5-0.2-0.7c-0.1-0.2-0.3-0.3-0.6-0.4V708.7z"/>
  <path d="M253.7,708.7h3.1v0.3c-0.5,0.1-0.7,0.5-0.7,1v11.7h5.8c0.6,0,1-0.1,1.3-0.3c0.3-0.2,0.6-0.5,0.9-0.8h0.3
    l-0.6,2.3h-10v-0.3c0.2,0,0.3-0.1,0.5-0.3c0.1-0.1,0.2-0.3,0.2-0.5v-12c0-0.5-0.2-0.8-0.7-0.9V708.7z"/>
  <path d="M262.8,708.7h12.7l1,2.1h-0.4c-0.2-0.3-0.5-0.5-0.8-0.6s-0.6-0.2-0.9-0.2H270v11.6c0,0.3,0.1,0.5,0.2,0.7
    c0.1,0.2,0.3,0.3,0.6,0.4v0.3h-3v-0.3c0.5-0.1,0.7-0.4,0.7-0.8v-11.8h-4.3c-0.5,0-0.8,0.1-1.2,0.2s-0.6,0.4-0.8,0.7h-0.3
    L262.8,708.7z"/>
  <path d="M276.8,708.7h3.3v0.3c-0.3,0.1-0.5,0.2-0.5,0.4c0,0.1,0.1,0.2,0.2,0.4l4.1,5.6l3.7-5.4
    c0.2-0.3,0.3-0.5,0.3-0.7c0-0.1,0-0.2-0.1-0.3s-0.2-0.1-0.4-0.1v-0.3h3v0.3c-0.3,0.1-0.5,0.2-0.8,0.4c-0.2,0.2-0.5,0.5-0.7,0.8
    l-4.5,6.6v4.9c0,0.3,0.1,0.5,0.2,0.6c0.1,0.2,0.3,0.3,0.5,0.3v0.3h-3v-0.3c0.2-0.1,0.4-0.2,0.5-0.4c0.1-0.2,0.2-0.3,0.2-0.5v-5.1
    L278,710l0,0c-0.2-0.3-0.4-0.6-0.6-0.7c-0.2-0.2-0.4-0.2-0.6-0.2V708.7z"/>
  <path d="M296.6,708.7h5.8c0.5,0,0.9,0.1,1.4,0.2c0.5,0.1,0.9,0.4,1.3,0.7s0.7,0.7,1,1.1c0.2,0.5,0.4,1,0.4,1.6
    c0,1.1-0.4,2-1.1,2.6c-0.8,0.6-1.8,0.9-3.1,1c0.6,0.3,1.1,0.7,1.6,1s0.9,0.8,1.2,1.2c0.4,0.4,0.7,0.9,1,1.4c0.3,0.5,0.7,1.1,1,1.7
    c0.3,0.5,0.5,0.8,0.6,1c0.2,0.2,0.3,0.3,0.5,0.4v0.3H305v-0.3c0.2,0,0.3-0.1,0.4-0.2c0.1-0.1,0.1-0.2,0.1-0.4
    c0-0.4-0.2-0.8-0.5-1.4c-0.3-0.6-0.8-1.2-1.3-1.9s-1.2-1.2-1.9-1.8c-0.7-0.5-1.4-0.9-2.1-1.1v-0.9h1.6c1.4,0,2.3-0.3,2.9-0.9
    c0.4-0.4,0.7-1,0.7-1.7c0-0.7-0.3-1.3-0.9-1.8c-0.6-0.4-1.3-0.7-2.3-0.7h-2.8v11.5c0,0.3,0.1,0.6,0.2,0.8c0.1,0.2,0.3,0.3,0.6,0.3
    v0.3h-3v-0.3c0.5-0.1,0.7-0.5,0.7-1v-11.4c0-0.6-0.2-1-0.7-1.1V708.7z"/>
  <path d="M309.6,708.7h9.7l0.8,2.1h-0.3c-0.2-0.3-0.5-0.5-0.8-0.7c-0.3-0.2-0.8-0.2-1.4-0.2h-5.7v4.5h6.6
    c0.2,0,0.4-0.1,0.6-0.2c0.2-0.1,0.3-0.3,0.3-0.5h0.3v2.6h-0.3c-0.1-0.5-0.4-0.7-0.9-0.7h-6.6v6h5.9c0.6,0,1-0.1,1.3-0.2
    c0.3-0.1,0.6-0.4,0.9-0.7h0.4l-0.8,2.1h-9.9v-0.3c0.2-0.1,0.4-0.2,0.5-0.3c0.1-0.1,0.2-0.3,0.2-0.5V710c0-0.5-0.2-0.9-0.7-1V708.7z
    "/>
  <path d="M335.5,708.7h3.1v0.3c-0.3,0-0.5,0.1-0.6,0.3s-0.2,0.4-0.2,0.7c0,0,0,0.1,0,0.2c0,0.1,0,0.2,0,0.2l0.8,11.1
    c0,0.4,0.1,0.7,0.2,0.9c0.1,0.2,0.3,0.3,0.6,0.3v0.3h-3.1v-0.3c0.3-0.1,0.5-0.2,0.6-0.3c0.1-0.2,0.2-0.4,0.2-0.7c0-0.1,0-0.1,0-0.2
    c0-0.1,0-0.1,0-0.2l-0.8-11.1l-5.4,10.8h-0.3l-5.5-10.7l-0.7,10.9c0,0.1,0,0.1,0,0.2l0,0.2c0,0.4,0.1,0.6,0.2,0.8
    c0.1,0.2,0.3,0.3,0.5,0.3v0.3h-2.7v-0.3c0.5-0.1,0.8-0.4,0.8-1l0.7-11.1c0-0.1,0-0.1,0-0.2c0-0.1,0-0.1,0-0.2
    c0-0.3-0.1-0.6-0.2-0.8c-0.1-0.2-0.4-0.3-0.7-0.3v-0.3h3.2l4.8,9.4L335.5,708.7z"/>
  <path d="M341.5,708.7h2.5l9.9,11.1v-9.9c0-0.3-0.1-0.4-0.2-0.6c-0.1-0.1-0.3-0.2-0.6-0.3v-0.3h2.8v0.3
    c-0.5,0.1-0.8,0.4-0.8,1v12.9h-0.5l-11-12.3v10.7c0,0.8,0.3,1.2,0.9,1.3v0.3h-2.9v-0.3c0.2,0,0.4-0.1,0.6-0.3
    c0.1-0.1,0.2-0.3,0.2-0.6v-11.7c0-0.3-0.1-0.5-0.2-0.7c-0.1-0.2-0.3-0.3-0.7-0.4V708.7z"/>
  <path d="M364.7,708.3h0.7l6.3,13.4c0.1,0.3,0.3,0.5,0.4,0.7c0.1,0.1,0.3,0.2,0.5,0.3v0.3h-3v-0.3
    c0.3-0.1,0.5-0.2,0.5-0.5c0-0.2-0.1-0.4-0.2-0.7l-1.5-3.2h-7l-1.4,3c-0.2,0.3-0.2,0.6-0.2,0.8c0,0.3,0.2,0.4,0.5,0.6v0.3h-2.8v-0.3
    c0.3-0.1,0.5-0.2,0.6-0.4c0.1-0.2,0.3-0.4,0.4-0.7l0.1-0.2L364.7,708.3z M364.9,710.8L362,717h5.9L364.9,710.8z"/>
  <path d="M374,708.7h2.5l9.9,11.1v-9.9c0-0.3-0.1-0.4-0.2-0.6c-0.1-0.1-0.3-0.2-0.6-0.3v-0.3h2.8v0.3
    c-0.5,0.1-0.8,0.4-0.8,1v12.9H387l-11-12.3v10.7c0,0.8,0.3,1.2,0.9,1.3v0.3h-2.9v-0.3c0.2,0,0.4-0.1,0.5-0.3s0.2-0.3,0.2-0.6v-11.7
    c0-0.3-0.1-0.5-0.2-0.7c-0.1-0.2-0.3-0.3-0.7-0.4V708.7z"/>
  <path d="M390.8,708.7h12.7l1,2.1h-0.4c-0.2-0.3-0.5-0.5-0.8-0.6s-0.6-0.2-0.9-0.2h-4.5v11.6c0,0.3,0.1,0.5,0.2,0.7
    s0.3,0.3,0.6,0.4v0.3h-3v-0.3c0.5-0.1,0.7-0.4,0.7-0.8v-11.8H392c-0.5,0-0.8,0.1-1.2,0.2c-0.3,0.2-0.6,0.4-0.8,0.7h-0.3
    L390.8,708.7z"/>
  <path d="M414.5,714.9c0.3,0.3,0.5,0.8,0.5,1.5c0,0.6-0.2,1.1-0.5,1.4c-0.4,0.3-0.9,0.4-1.5,0.4c-0.7,0-1.2-0.2-1.6-0.5
    c-0.3-0.3-0.5-0.8-0.5-1.5c0-0.6,0.2-1,0.5-1.4c0.3-0.3,0.8-0.5,1.5-0.5C413.7,714.4,414.2,714.6,414.5,714.9z"/>
</g>
</svg>
