<?xml version="1.0" encoding="utf-8"?>
<svg version="1.1" id="Layer_1" xmlns="http://www.w3.org/2000/svg" xmlns:xlink="http://www.w3.org/1999/xlink" x="0px" y="0px"
   viewBox="0 0 792 612" style="enable-background:new 0 0 792 612;" xml:space="preserve">
<title>WE ARE LIVING REMINDERS - GUILTY REMNANT</title>
<g>
  <path d="M227.7,88.9H244v1.6c-2.3,0.2-3.4,1-3.4,2.5c0.1,1,0.3,2,0.8,2.9l20.4,55.4l18.6-53.8c0.5-1.2,0.9-2.5,1-3.8
    c0-1.7-1-2.7-3-3.1v-1.6h14.5v1.6c-1.1,0-2.2,0.7-3.3,2.2c-1,1.5-1.8,3.1-2.4,4.8l-23.9,69.4h-4.7L242,121.5
    c-1.3-3.6-3.2-8.8-5.5-15.6c-0.7-1.9-1.2-3.7-1.7-5.2c-1.3,4.1-2.6,8-3.9,11.7c-1.3,3.6-2.6,7.3-3.9,11.1l-15.2,43.5h-4.9L182,98.1
    c-0.6-1.7-1.3-3.4-2.4-4.9c-0.8-1.3-2-2.2-3.4-2.7v-1.6h16.9v1.6c-0.9-0.1-1.8,0.3-2.4,1.1c-0.5,0.8-0.8,1.7-0.8,2.7
    c0,0.7,0.1,1.4,0.3,2l19.8,55.5l19.4-55c0.4-1,0.6-2.1,0.8-3.2c0-1.3-0.9-2.3-2.6-3.1L227.7,88.9z"/>
  <path d="M301.1,88.9h52.1l4.5,11.3h-1.8c-1.2-1.5-2.7-2.7-4.5-3.5c-2.4-0.9-4.9-1.3-7.4-1.2h-30.5v24h35.2c1.2,0,2.3-0.4,3.2-1.1
    c0.9-0.6,1.5-1.6,1.7-2.7h1.5v14.1h-1.5c-0.6-2.5-2.2-3.7-4.9-3.7h-35.2v32.3h31.6c2.4,0.1,4.9-0.3,7.1-1.1
    c1.8-0.9,3.4-2.2,4.6-3.8h1.9l-4.5,11.4h-53v-1.6c1-0.3,2-0.8,2.7-1.6c0.7-0.7,1-1.5,1.1-2.5V96c0.2-2.6-1.5-4.9-4-5.5L301.1,88.9z
    "/>
  <path d="M431,86.8h3.6l33.9,71.5c0.5,1.3,1.3,2.5,2.2,3.6c0.7,0.7,1.7,1.2,2.7,1.4v1.6h-15.9v-1.6c1.6-0.4,2.5-1.3,2.5-2.6
    c-0.1-1.3-0.4-2.5-1.1-3.6l-8.1-17.1h-37.3l-7.4,16.2c-0.7,1.3-1.1,2.7-1.3,4.2c0,1.3,0.9,2.3,2.6,3v1.6h-14.8v-1.6
    c1.2-0.3,2.3-0.9,3.2-1.9c0.9-1.2,1.6-2.5,2.2-3.9l0.4-0.9L431,86.8z M432.1,100.3l-15.6,33.3h31.5L432.1,100.3z"/>
  <path d="M481.3,88.9h31.1c2.5,0,5,0.4,7.4,1.1c2.5,0.7,4.9,1.9,7,3.5c4.7,3.4,7.3,8.9,7.2,14.7c0,6.1-2,10.8-6,14
    s-9.6,4.9-16.8,5.2c3,1.6,5.8,3.5,8.4,5.6c2.4,1.9,4.6,4,6.6,6.3c2,2.3,3.9,4.8,5.6,7.3c1.7,2.7,3.6,5.8,5.5,9.3
    c1,1.9,2.1,3.6,3.4,5.4c0.7,1,1.8,1.7,2.9,2v1.6h-17.4v-1.6c0.9-0.1,1.6-0.5,2.2-1.2c0.4-0.6,0.6-1.4,0.6-2.1
    c0-1.9-0.9-4.5-2.6-7.7c-2-3.6-4.4-7-7.1-10.1c-3-3.5-6.4-6.6-10.1-9.4c-3.4-2.6-7.3-4.6-11.4-5.8v-4.7h8.4
    c7.3,0,12.5-1.6,15.6-4.7c2.4-2.4,3.7-5.8,3.5-9.2c0.1-3.7-1.6-7.3-4.6-9.5c-3.1-2.3-7.1-3.5-12.1-3.5h-15v61.7
    c0,1.5,0.2,2.9,0.9,4.3c0.6,1.1,1.7,1.8,3,1.8v1.6h-16.1v-1.6c2.6-0.7,3.9-2.5,3.9-5.6V96.5c0-3.4-1.3-5.4-4-6L481.3,88.9z"/>
  <path d="M550.8,88.9h52.1l4.5,11.3h-1.8c-1.2-1.5-2.8-2.7-4.5-3.5c-2.3-0.9-4.9-1.3-7.4-1.2h-30.5v24h35.2c1.2,0,2.3-0.4,3.2-1.1
    c0.9-0.6,1.5-1.6,1.7-2.7h1.5v14.1h-1.5c-0.6-2.5-2.2-3.7-4.9-3.7h-35.2v32.3h31.6c2.4,0.1,4.9-0.3,7.1-1.1
    c1.8-0.9,3.4-2.2,4.7-3.8h1.9l-4.5,11.4H551v-1.6c1-0.3,2-0.8,2.7-1.6c0.7-0.7,1-1.5,1.1-2.5V96c0.2-2.6-1.5-4.9-4-5.5L550.8,88.9z
    "/>
  <path d="M210,217.3h16.4v1.6c-2.5,0.5-4.2,2.7-4,5.2V287h31.2c2.5,0.1,4.9-0.4,7.2-1.4c1.9-1.1,3.5-2.6,4.6-4.5h1.8l-3.4,12.2
    h-53.5v-1.6c1-0.1,1.9-0.6,2.6-1.4c0.7-0.7,1-1.5,1.1-2.5v-64c0.2-2.5-1.6-4.6-4-4.9L210,217.3z"/>
  <path d="M277,217.3h16.3v1.6c-2.6,0.5-3.9,2.1-3.9,4.8v62.8c0,2.9,1.3,4.6,3.9,5.1v1.6h-16.2v-1.6c2.6-0.9,3.9-2.5,3.9-4.8v-62.5
    c0-1.2-0.3-2.4-1-3.5c-0.7-1-1.8-1.7-3-2L277,217.3z"/>
  <path d="M363.6,217.3h15.1v1.6c-1.4,0.4-2.6,1.3-3.4,2.4c-1,1.6-1.9,3.2-2.6,5l-0.5,1.3l-29,67.7h-4.3L309,228.6l-0.4-0.9
    c-0.9-2.2-2-4.3-3.2-6.3c-0.7-1.2-1.9-2.1-3.3-2.5v-1.6h16.6v1.6c-0.8,0-1.6,0.4-2.2,1c-0.6,0.7-0.9,1.6-0.9,2.5
    c0,0.9,0.3,1.8,0.6,2.6l25.6,57l23.8-56.2c0.5-1.1,0.8-2.2,0.8-3.4c0-2.1-0.9-3.3-2.8-3.5V217.3z"/>
  <path d="M387.4,217.3h16.3v1.6c-2.6,0.5-3.9,2.1-3.9,4.8v62.8c0,2.9,1.3,4.6,3.9,5.1v1.6h-16.2v-1.6c2.6-0.9,3.9-2.5,3.9-4.8v-62.5
    c0-1.2-0.3-2.4-1-3.5c-0.7-1-1.8-1.7-3-2L387.4,217.3z"/>
  <path d="M417.9,217.3h13.2l52.9,59.2v-52.9c0.1-1.1-0.3-2.2-1.1-3c-1-0.8-2.1-1.4-3.3-1.7v-1.6h15.2v1.6c-2.6,0.3-4.5,2.6-4.3,5.2
    v69.1h-2.8l-58.7-65.8V285c0,4.2,1.5,6.5,4.6,6.7v1.6h-15.3v-1.6c1.1-0.2,2.1-0.7,2.9-1.5c0.8-0.8,1.2-2,1.1-3.1v-62.5
    c0-1.3-0.3-2.5-0.9-3.6c-0.8-1.1-2.1-1.8-3.5-2L417.9,217.3z"/>
  <path d="M576.5,283.8c-4.2,3.7-9.1,6.6-14.3,8.7c-4.9,1.9-10.1,2.9-15.3,2.9c-5.7,0.1-11.3-1-16.5-3.2c-4.8-2-9.1-5-12.6-8.7
    c-3.4-3.7-6.1-8-7.9-12.7c-3.7-9.8-3.6-20.7,0.2-30.5c1.9-4.8,4.7-9.3,8.3-13c3.6-3.7,7.9-6.7,12.7-8.7c5-2.1,10.4-3.1,15.8-3.1
    c3.8-0.1,7.7,0.4,11.4,1.4c3.2,0.9,6.2,2.3,9,4.2c0.8-1.1,1.5-2.3,2-3.5h1.9l3.5,17.6l-1.7,0.1c-3.3-4.4-7.5-8-12.3-10.5
    c-4.4-2.3-9.2-3.5-14.1-3.5c-4.2,0-8.4,0.9-12.2,2.6c-3.8,1.7-7.1,4.2-9.8,7.4c-2.8,3.2-5,6.9-6.4,10.9c-1.5,4.1-2.3,8.5-2.3,12.9
    c-0.1,4.6,0.8,9.3,2.5,13.6c1.6,4,4,7.6,7,10.7c2.9,3,6.4,5.3,10.2,6.9c3.8,1.6,7.9,2.4,12,2.4c7,0,13.8-2.2,20.4-6.6v-21.7
    c0-2.9-1.3-4.6-4-5.4v-1.4h16.4v1.5c-1.1,0.3-2,0.9-2.7,1.7c-0.8,1-1.2,2.2-1.1,3.4L576.5,283.8z"/>
  <path d="M78.9,345.7h31.1c2.5,0,5,0.4,7.4,1.1c2.5,0.7,4.9,1.9,7,3.5c4.7,3.4,7.3,8.9,7.2,14.7c0,6.1-2,10.8-6,14
    s-9.6,4.9-16.8,5.2c3,1.6,5.8,3.5,8.4,5.6c2.4,1.9,4.6,4,6.6,6.3c2,2.3,3.9,4.8,5.6,7.3c1.7,2.7,3.6,5.8,5.5,9.3
    c1,1.9,2.1,3.6,3.4,5.4c0.7,1,1.8,1.7,2.9,2v1.6H124V420c0.9-0.1,1.6-0.5,2.2-1.2c0.4-0.6,0.6-1.4,0.6-2.1c0-1.9-0.9-4.5-2.6-7.7
    c-2-3.6-4.4-6.9-7.2-10c-3-3.5-6.4-6.6-10.1-9.4c-3.4-2.6-7.3-4.6-11.4-5.8v-4.7h8.3c7.3,0,12.5-1.6,15.6-4.7
    c2.4-2.4,3.7-5.8,3.5-9.2c0.1-3.7-1.6-7.3-4.6-9.5c-3.1-2.3-7.1-3.5-12.1-3.5h-15V414c0,1.5,0.2,2.9,0.9,4.3c0.6,1.1,1.7,1.8,3,1.8
    v1.6H79v-1.6c2.6-0.7,3.8-2.5,3.8-5.6v-61.2c0-3.4-1.3-5.4-4-6L78.9,345.7z"/>
  <path d="M148.4,345.7h52.1l4.5,11.3h-1.8c-1.2-1.5-2.7-2.7-4.5-3.5c-2.3-0.9-4.9-1.3-7.4-1.2h-30.5v24H196c1.2,0,2.3-0.4,3.2-1.1
    c0.9-0.6,1.5-1.6,1.7-2.7h1.5v14.1h-1.5c-0.6-2.5-2.2-3.7-4.9-3.8h-35.2v32.3h31.6c2.4,0.1,4.9-0.3,7.1-1.1
    c1.8-0.9,3.4-2.2,4.6-3.8h1.9l-4.5,11.5h-53v-1.6c1-0.3,2-0.8,2.7-1.6c0.7-0.7,1-1.5,1.1-2.5v-63.2c0.2-2.6-1.5-4.9-4-5.5
    L148.4,345.7z"/>
  <path d="M287.2,345.7h16.7v1.6c-1.3,0-2.5,0.5-3.4,1.4c-0.7,1-1.1,2.3-1,3.5c0,0.3,0.1,0.6,0.1,0.9v1.1l4.1,59.2
    c0,1.7,0.4,3.4,1.2,4.9c0.8,1,1.9,1.7,3.2,1.8v1.6h-16.6v-1.6c1.2-0.1,2.3-0.8,3-1.7c0.6-1.2,0.9-2.5,0.9-3.9c0-0.3,0-0.6-0.1-0.9
    v-1l-4.3-59.4l-28.7,57.8h-1.7L231.2,354l-3.8,58.3v1l-0.1,0.9c-0.1,1.5,0.2,3,0.9,4.3c0.7,1,1.7,1.6,2.9,1.7v1.6h-14.6v-1.6
    c2.7-0.6,4.1-2.4,4.3-5.4l3.8-59.4v-1.2c0.1-0.4,0.1-0.7,0.1-1.1c0.1-1.4-0.3-2.8-1-4.1c-0.7-0.9-2-1.5-3.9-1.7v-1.6h16.9
    l25.5,50.4L287.2,345.7z"/>
  <path d="M320,345.7h16.3v1.6c-2.6,0.5-3.9,2.1-3.9,4.8V415c0,2.9,1.3,4.6,3.9,5.1v1.6h-16.2v-1.6c2.6-0.9,3.9-2.5,3.9-4.8v-62.5
    c0-1.2-0.3-2.4-1-3.5c-0.7-1-1.8-1.7-3-2L320,345.7z"/>
  <path d="M350.5,345.7h13.2l52.9,59.2V352c0.1-1.1-0.3-2.2-1.1-3c-1-0.8-2.1-1.4-3.3-1.7v-1.6h15.2v1.6c-2.6,0.3-4.5,2.6-4.3,5.2
    v69.1h-2.8l-58.7-65.8v57.5c0,4.2,1.5,6.5,4.6,6.7v1.6h-15.3v-1.6c1.1-0.2,2.1-0.7,2.9-1.5c0.8-0.8,1.2-2,1.1-3.1V353
    c0-1.3-0.3-2.5-0.9-3.6c-0.8-1.1-2.1-1.8-3.5-2L350.5,345.7z"/>
  <path d="M445.1,352.6c0-1.2-0.4-2.3-1.1-3.3c-0.6-1-1.6-1.7-2.7-2v-1.6h29.3c5.8-0.1,11.6,0.9,17,3c4.7,1.8,8.9,4.7,12.3,8.3
    c3.3,3.5,5.8,7.5,7.4,12c1.7,4.7,2.5,9.6,2.5,14.5c0.1,5.8-1,11.5-3.3,16.8c-2,4.6-5,8.7-8.8,12c-3.7,3.1-8,5.5-12.6,7.1
    c-4.7,1.6-9.6,2.4-14.5,2.4h-29.2v-1.6c1.1-0.1,2-0.7,2.7-1.6c0.7-0.9,1.1-2,1.1-3.1L445.1,352.6z M453.5,415.3H465
    c5.4,0.1,10.8-0.6,16-2.1c4.5-1.4,8.5-3.9,11.8-7.2c2.8-2.9,4.9-6.3,6.2-10.1c1.4-4.1,2-8.3,2-12.6c0-3.9-0.6-7.7-1.9-11.4
    c-1.2-3.6-3.2-7-5.7-9.9c-2.7-3-5.9-5.4-9.6-7c-4.2-1.8-8.6-2.6-13.2-2.6h-17.1V415.3z"/>
  <path d="M520.7,345.7h52.1l4.5,11.3h-1.8c-1.2-1.5-2.7-2.7-4.5-3.5c-2.3-0.9-4.9-1.3-7.4-1.2h-30.5v24h35.2c1.2,0,2.3-0.4,3.2-1.1
    c0.9-0.6,1.5-1.6,1.7-2.7h1.5v14.1h-1.5c-0.6-2.5-2.2-3.7-4.9-3.8h-35.2v32.3h31.6c2.4,0.1,4.9-0.3,7.1-1.1
    c1.8-0.9,3.4-2.2,4.7-3.8h1.9l-4.5,11.5H521v-1.6c1-0.3,2-0.8,2.7-1.6c0.6-0.7,1-1.6,1-2.5v-63.2c0.2-2.6-1.5-4.9-4-5.5
    L520.7,345.7z"/>
  <path d="M591.7,345.7h31.1c2.5,0,5,0.4,7.4,1.1c2.5,0.7,4.9,1.9,7,3.5c4.7,3.4,7.3,8.9,7.2,14.7c0,6.1-2,10.8-6,14
    s-9.6,4.9-16.8,5.2c3,1.6,5.8,3.5,8.4,5.6c2.4,1.9,4.6,4,6.6,6.3c2,2.3,3.9,4.8,5.6,7.3c1.7,2.7,3.6,5.8,5.5,9.3
    c1,1.9,2.1,3.6,3.4,5.4c0.7,1,1.8,1.7,2.9,2v1.6h-17.4V420c0.9-0.1,1.6-0.5,2.2-1.2c0.4-0.6,0.6-1.4,0.6-2.1c0-1.9-0.9-4.5-2.6-7.7
    c-2-3.6-4.4-6.9-7.1-10c-3-3.5-6.4-6.6-10.1-9.4c-3.4-2.6-7.3-4.6-11.4-5.8v-4.7h8.3c7.3,0,12.5-1.6,15.6-4.7
    c2.4-2.4,3.7-5.8,3.5-9.2c0.1-3.7-1.6-7.3-4.6-9.5c-3.1-2.3-7.1-3.5-12.1-3.5h-15V414c0,1.5,0.2,2.9,0.9,4.3c0.6,1.1,1.7,1.8,3,1.8
    v1.6h-16.1v-1.6c2.6-0.7,3.8-2.5,3.8-5.6v-61.2c0-3.4-1.3-5.4-4-6L591.7,345.7z"/>
  <path d="M662.6,404.6c2.5,4,6.1,7.2,10.2,9.4c4,2.2,8.5,3.4,13.1,3.5c5.2,0,9.4-1.3,12.6-4c3.1-2.5,4.9-6.3,4.8-10.3
    c0-2.1-0.5-4.1-1.5-5.9c-1-1.8-2.4-3.4-4-4.7c-1.7-1.4-3.6-2.7-5.6-3.8c-2-1.1-4.5-2.4-7.7-3.9c-3.6-1.7-6.5-3.2-8.8-4.5
    c-2.3-1.3-4.4-2.8-6.4-4.5c-1.9-1.7-3.6-3.7-4.8-6c-3.5-7-1.9-15.4,3.8-20.7c3.8-3.4,9-5.1,15.7-5.1c3.4-0.1,6.8,0.3,10.1,1.2
    c2.5,0.7,4.8,1.7,7,3l2.6-3.2h1.6l3.1,16.3h-2c-2.5-3.5-5.9-6.3-9.7-8.3c-3.6-1.8-7.6-2.8-11.7-2.8c-4.7,0-8.3,1-10.9,3
    c-4.1,3-5.2,8.6-2.6,12.9c0.9,1.6,2.2,2.9,3.6,4c1.6,1.2,3.3,2.3,5,3.3c1.8,1,4.1,2.2,7.1,3.5c3.7,1.8,6.8,3.4,9.2,4.7
    c2.5,1.4,4.9,3.1,7,5c2.2,2,4,4.3,5.3,7c1.4,2.9,2.1,6,2,9.1c0,2.1-0.4,4.2-1,6.1c-0.8,2.5-2,4.8-3.6,6.9c-2,2.5-4.5,4.4-7.4,5.7
    c-3.7,1.6-7.8,2.4-11.9,2.3c-3,0-6-0.3-8.9-1.1c-2.7-0.8-5.3-1.8-7.8-3.2l-2.3,3.4h-1.7l-5.8-18.1L662.6,404.6z"/>
</g>
<g>
  <path d="M299.5,547.5c0.4,0.4,0.5,1,0.5,1.5c0,0.5-0.2,1-0.5,1.4c-0.4,0.3-1,0.5-1.5,0.4c-0.6,0.1-1.1-0.1-1.6-0.5
    c-0.3-0.4-0.5-0.9-0.5-1.5c0-0.5,0.1-1,0.5-1.4c0.4-0.4,1-0.5,1.5-0.5C298.5,547,299.1,547.1,299.5,547.5z"/>
  <path d="M320.3,553.7c-0.8,0.7-1.7,1.2-2.7,1.6c-0.9,0.4-1.9,0.5-2.9,0.5c-1.1,0-2.1-0.2-3.1-0.6c-0.9-0.4-1.7-0.9-2.4-1.6
    c-0.6-0.7-1.1-1.5-1.5-2.4c-0.7-1.8-0.7-3.9,0-5.7c0.4-0.9,0.9-1.7,1.6-2.4c0.7-0.7,1.5-1.3,2.4-1.6c0.9-0.4,2-0.6,3-0.6
    c0.7,0,1.4,0.1,2.1,0.3c0.6,0.2,1.2,0.4,1.7,0.8c0.2-0.2,0.3-0.4,0.4-0.7h0.4l0.7,3.3h-0.3c-0.6-0.8-1.4-1.5-2.3-2
    c-0.8-0.4-1.7-0.6-2.6-0.7c-0.8,0-1.6,0.2-2.3,0.5c-0.7,0.3-1.3,0.8-1.8,1.4c-0.5,0.6-0.9,1.3-1.2,2c-0.3,0.8-0.4,1.6-0.4,2.4
    c0,0.9,0.2,1.7,0.5,2.5c0.3,0.7,0.7,1.4,1.3,2c1.1,1.1,2.6,1.7,4.1,1.7c1.4,0,2.7-0.5,3.8-1.2v-4.1c0-0.5-0.3-0.9-0.7-1V548h3.1
    v0.3c-0.2,0.1-0.4,0.2-0.5,0.3c-0.1,0.2-0.2,0.4-0.2,0.6L320.3,553.7z"/>
  <path d="M333.1,541.3h2.9v0.3c-0.5,0.1-0.8,0.5-0.8,1v7.6c0.1,1.5-0.5,3-1.6,4.2c-1.1,1.1-2.7,1.6-4.2,1.5c-0.7,0-1.5-0.1-2.2-0.3
    c-0.7-0.2-1.4-0.5-1.9-1c-0.6-0.5-1.1-1.2-1.4-1.9c-0.4-0.9-0.5-1.9-0.5-2.9v-7.2c0-0.5-0.3-0.9-0.7-1v-0.3h3.1v0.3
    c-0.2,0-0.5,0.2-0.6,0.4c-0.1,0.2-0.2,0.5-0.2,0.7v6.9c-0.1,1.4,0.3,2.7,1.2,3.8c0.4,0.4,0.9,0.8,1.5,1c0.6,0.2,1.3,0.4,2,0.3
    c0.6,0,1.2-0.1,1.7-0.3c1.1-0.4,1.9-1.2,2.3-2.3c0.2-0.6,0.3-1.3,0.3-2v-7.5c0.1-0.5-0.3-0.9-0.8-1c0,0,0,0,0,0L333.1,541.3z"/>
  <path d="M338.2,541.3h3v0.3c-0.4,0.1-0.8,0.5-0.7,0.9v11.7c-0.1,0.5,0.2,0.9,0.7,1c0,0,0,0,0,0v0.3h-3v-0.3
    c0.4-0.1,0.7-0.5,0.7-0.9v-11.7c0-0.2-0.1-0.5-0.2-0.7c-0.1-0.2-0.3-0.3-0.6-0.4L338.2,541.3z"/>
  <path d="M343.6,541.3h3.1v0.3c-0.5,0.1-0.8,0.5-0.7,1v11.7h5.8c0.5,0,0.9-0.1,1.3-0.3c0.4-0.2,0.6-0.5,0.9-0.8h0.3l-0.6,2.3h-10
    v-0.3c0.2,0,0.4-0.1,0.5-0.3c0.1-0.1,0.2-0.3,0.2-0.5v-12c0-0.5-0.3-0.9-0.7-0.9V541.3z"/>
  <path d="M352.8,541.3h12.7l1,2.1h-0.4c-0.2-0.3-0.5-0.5-0.8-0.6c-0.3-0.2-0.6-0.2-0.9-0.2H360v11.6c0,0.2,0.1,0.5,0.2,0.7
    c0.1,0.2,0.4,0.3,0.6,0.4v0.3h-3v-0.3c0.4-0.1,0.7-0.4,0.7-0.8v-11.8h-4.3c-0.4,0-0.8,0.1-1.2,0.2c-0.3,0.2-0.6,0.4-0.8,0.7h-0.3
    L352.8,541.3z"/>
  <path d="M366.8,541.3h3.3v0.3c-0.3,0.1-0.5,0.2-0.5,0.4c0,0.1,0.1,0.3,0.2,0.4l4.1,5.6l3.7-5.4c0.2-0.2,0.2-0.4,0.3-0.7
    c0-0.1,0-0.2-0.1-0.3c-0.1-0.1-0.3-0.1-0.4-0.1v-0.3h3v0.3c-0.3,0.1-0.5,0.2-0.8,0.4c-0.2,0.2-0.5,0.5-0.6,0.8l-4.5,6.6v4.9
    c0,0.2,0.1,0.5,0.2,0.6c0.1,0.2,0.3,0.3,0.5,0.3v0.3h-3v-0.3c0.2-0.1,0.4-0.2,0.5-0.3c0.1-0.2,0.2-0.3,0.2-0.5v-5.1l-4.9-6.6l0,0
    c-0.2-0.3-0.4-0.5-0.6-0.7c-0.2-0.2-0.4-0.2-0.6-0.2L366.8,541.3z"/>
  <path d="M386.6,541.3h5.8c0.5,0,0.9,0.1,1.4,0.2c0.5,0.1,0.9,0.4,1.3,0.7c0.9,0.6,1.4,1.7,1.3,2.7c0.1,1-0.4,2-1.1,2.6
    c-0.9,0.7-2,1-3.1,1c0.6,0.3,1.1,0.6,1.6,1c0.4,0.4,0.9,0.7,1.2,1.2c0.4,0.4,0.7,0.9,1,1.4c0.3,0.5,0.7,1.1,1,1.7
    c0.2,0.3,0.4,0.7,0.6,1c0.1,0.2,0.3,0.3,0.5,0.4v0.3H395v-0.3c0.2,0,0.3-0.1,0.4-0.2c0.1-0.1,0.1-0.3,0.1-0.4c0-0.5-0.2-1-0.5-1.4
    c-0.4-0.7-0.8-1.3-1.3-1.9c-0.6-0.7-1.2-1.2-1.9-1.8c-0.6-0.5-1.4-0.9-2.1-1.1v-0.9h1.6c1.1,0.1,2.1-0.2,2.9-0.9
    c0.5-0.5,0.7-1.1,0.7-1.7c0-0.7-0.3-1.4-0.9-1.8c-0.7-0.5-1.5-0.7-2.3-0.7h-2.8V554c0,0.3,0,0.5,0.2,0.8c0.1,0.2,0.3,0.3,0.6,0.3
    v0.3h-3v-0.3c0.5-0.1,0.8-0.5,0.7-1v-11.5c0-0.7-0.2-1-0.7-1.1L386.6,541.3z"/>
  <path d="M399.5,541.3h9.7l0.8,2.1h-0.3c-0.2-0.3-0.5-0.5-0.8-0.7c-0.4-0.2-0.9-0.3-1.4-0.2h-5.7v4.5h6.6c0.2,0,0.4-0.1,0.6-0.2
    c0.2-0.1,0.3-0.3,0.3-0.5h0.3v2.7h-0.3c-0.1-0.4-0.5-0.7-0.9-0.7h-6.6v6h5.9c0.5,0,0.9,0,1.3-0.2c0.3-0.2,0.6-0.4,0.9-0.7h0.4
    l-0.8,2.1h-9.9v-0.3c0.2,0,0.4-0.2,0.5-0.3c0.1-0.1,0.2-0.3,0.2-0.5v-11.8c0-0.5-0.3-0.9-0.7-1L399.5,541.3z"/>
  <path d="M425.5,541.3h3.1v0.3c-0.2,0-0.5,0.1-0.6,0.3c-0.1,0.2-0.2,0.4-0.2,0.7c0,0.1,0,0.1,0,0.2v0.2l0.8,11.1
    c0,0.3,0.1,0.6,0.2,0.9c0.1,0.2,0.4,0.3,0.6,0.3v0.3h-3.1v-0.3c0.2,0,0.4-0.1,0.6-0.3c0.1-0.2,0.2-0.5,0.2-0.7c0-0.1,0-0.1,0-0.2
    v-0.2l-0.8-11.1l-5.4,10.8h-0.3l-5.5-10.7l-0.7,10.9v0.2v0.2c0,0.3,0,0.6,0.2,0.8c0.1,0.2,0.3,0.3,0.5,0.3v0.3h-2.7v-0.3
    c0.5-0.1,0.8-0.5,0.8-1l0.7-11.1v-0.2c0-0.1,0-0.1,0-0.2c0-0.3,0-0.5-0.2-0.8c-0.2-0.2-0.4-0.3-0.7-0.3v-0.3h3.2l4.8,9.4
    L425.5,541.3z"/>
  <path d="M431.5,541.3h2.5l9.9,11.1v-9.9c0-0.2-0.1-0.4-0.2-0.6c-0.2-0.2-0.4-0.3-0.6-0.3v-0.3h2.8v0.3c-0.5,0.1-0.9,0.5-0.8,1
    c0,0,0,0,0,0v12.9h-0.5l-11-12.3V554c0,0.8,0.3,1.2,0.9,1.3v0.3h-2.9v-0.3c0.2,0,0.4-0.1,0.5-0.3c0.1-0.2,0.2-0.4,0.2-0.6v-11.7
    c0-0.2-0.1-0.5-0.2-0.7c-0.2-0.2-0.4-0.3-0.6-0.4L431.5,541.3z"/>
  <path d="M454.7,540.9h0.7l6.3,13.4c0.1,0.2,0.2,0.5,0.4,0.7c0.1,0.1,0.3,0.2,0.5,0.3v0.3h-3v-0.3c0.3-0.1,0.5-0.2,0.5-0.5
    c0-0.2-0.1-0.5-0.2-0.7l-1.5-3.2h-7l-1.4,3c-0.1,0.2-0.2,0.5-0.2,0.8c0,0.3,0.2,0.4,0.5,0.6v0.3h-2.8v-0.3c0.2-0.1,0.4-0.2,0.6-0.3
    c0.2-0.2,0.3-0.5,0.4-0.7l0.1-0.2L454.7,540.9z M454.9,543.4l-2.9,6.2h5.9L454.9,543.4z"/>
  <path d="M464,541.3h2.5l9.9,11.1v-9.9c0-0.2-0.1-0.4-0.2-0.6c-0.2-0.2-0.4-0.3-0.6-0.3v-0.3h2.8v0.3c-0.5,0.1-0.9,0.5-0.8,1
    c0,0,0,0,0,0v12.9H477l-11-12.3V554c0,0.8,0.3,1.2,0.9,1.3v0.3H464v-0.3c0.2,0,0.4-0.1,0.5-0.3c0.1-0.2,0.2-0.4,0.2-0.6v-11.7
    c0-0.2-0.1-0.5-0.2-0.7c-0.2-0.2-0.4-0.3-0.6-0.4L464,541.3z"/>
  <path d="M480.8,541.3h12.7l1,2.1h-0.4c-0.2-0.3-0.5-0.5-0.8-0.6c-0.3-0.2-0.6-0.2-0.9-0.2h-4.5v11.6c0,0.2,0.1,0.5,0.2,0.7
    c0.1,0.2,0.4,0.3,0.6,0.4v0.3h-3v-0.3c0.4-0.1,0.7-0.4,0.7-0.8v-11.8H482c-0.4,0-0.8,0.1-1.2,0.2c-0.3,0.2-0.6,0.4-0.8,0.7h-0.3
    L480.8,541.3z"/>
  <path d="M504.5,547.5c0.4,0.4,0.5,1,0.5,1.5c0,0.5-0.2,1-0.5,1.4c-0.4,0.3-1,0.5-1.5,0.4c-0.6,0.1-1.1-0.1-1.6-0.5
    c-0.3-0.4-0.5-0.9-0.5-1.5c0-0.5,0.1-1,0.5-1.4c0.4-0.4,1-0.5,1.5-0.5C503.5,547,504.1,547.1,504.5,547.5z"/>
</g>
</svg>
