<?xml version="1.0" encoding="utf-8"?>
<svg version="1.1" id="Layer_1" xmlns="http://www.w3.org/2000/svg" xmlns:xlink="http://www.w3.org/1999/xlink" x="0px" y="0px"
   viewBox="0 0 792 612" style="enable-background:new 0 0 792 612;" xml:space="preserve">
<title>WE DON'T SMOKE FOR ENJOYMENT, WE SMOKE TO PROCLAIM OUR FAITH - GUILTY REMNANT</title>
<g>
  <path d="M94,90.5h10.8v1.1c-1.5,0.1-2.3,0.7-2.3,1.6c0,0.4,0.2,1.1,0.5,1.9l13.6,36.8L129,96.2c0.4-1.2,0.6-2,0.6-2.6
    c0-1.1-0.7-1.8-2-2.1v-1.1h9.6v1.1c-0.8,0-1.5,0.5-2.2,1.5c-0.7,1-1.2,2-1.6,3.2l-15.8,46.1h-3.1l-11-30.2
    c-0.9-2.4-2.1-5.9-3.6-10.4c-0.4-1.3-0.8-2.4-1.1-3.5c-0.9,2.7-1.8,5.3-2.6,7.7c-0.8,2.4-1.7,4.9-2.6,7.4l-10.1,28.9h-3.3
    L63.7,96.6c-0.4-1.3-0.9-2.4-1.6-3.3c-0.6-0.9-1.4-1.5-2.3-1.8v-1.1h11.2v1.1c-0.7,0-1.2,0.2-1.6,0.7C69.2,92.7,69,93.3,69,94
    c0,0.5,0.1,0.9,0.2,1.3l13.1,36.8l12.9-36.5c0.3-1,0.5-1.7,0.5-2.1c0-0.9-0.6-1.5-1.7-2.1V90.5z"/>
  <path d="M142.7,90.5h34.6l3,7.5h-1.2c-0.8-1-1.8-1.8-3-2.3c-1.2-0.5-2.8-0.8-4.9-0.8H151v15.9h23.4
    c0.8,0,1.5-0.2,2.1-0.7c0.7-0.5,1-1.1,1.1-1.8h1v9.4h-1c-0.4-1.7-1.5-2.5-3.3-2.5H151v21.4h20.9c2.1,0,3.7-0.2,4.7-0.7
    s2.1-1.3,3.1-2.5h1.3l-3,7.6h-35.1v-1.1c0.7-0.2,1.3-0.5,1.8-1.1c0.5-0.5,0.7-1.1,0.7-1.6v-42c0-1.8-0.9-3.1-2.6-3.6V90.5z"/>
  <path d="M209.4,95c0-0.8-0.2-1.5-0.7-2.2c-0.5-0.7-1.1-1.1-1.8-1.3v-1.1h19.5c4.2,0,8,0.7,11.3,2
    c3.3,1.3,6,3.1,8.2,5.5c2.2,2.3,3.8,5,4.9,8c1.1,3,1.6,6.2,1.6,9.6c0,4.2-0.7,7.9-2.2,11.1c-1.4,3.2-3.4,5.9-5.9,8
    c-2.5,2.1-5.2,3.6-8.3,4.7c-3.1,1-6.3,1.6-9.6,1.6h-19.4v-1.1c0.7-0.1,1.3-0.4,1.8-1.1c0.5-0.6,0.7-1.3,0.7-2.1V95z M215,136.6h7.6
    c4.2,0,7.7-0.5,10.6-1.4c2.9-0.9,5.5-2.5,7.8-4.8c1.8-1.8,3.2-4.1,4.1-6.7c0.9-2.6,1.3-5.4,1.3-8.3c0-2.6-0.4-5.1-1.2-7.6
    c-0.8-2.4-2.1-4.6-3.8-6.6c-1.7-1.9-3.8-3.5-6.4-4.6c-2.6-1.1-5.5-1.7-8.7-1.7H215V136.6z"/>
  <path d="M274.1,140.2c-3.4-1.6-6.3-3.7-8.6-6.3s-4-5.5-5.1-8.6c-1.2-3.1-1.7-6.1-1.7-9.1c0-3.7,0.7-7.2,2.1-10.5
    c1.4-3.3,3.4-6.3,5.9-8.8c2.5-2.5,5.5-4.5,8.9-5.9c3.4-1.4,7.1-2.1,10.9-2.1c4.1,0,7.8,0.7,11.1,2.2c3.4,1.5,6.2,3.5,8.6,6.1
    c2.4,2.6,4.2,5.4,5.4,8.7c1.2,3.2,1.8,6.5,1.8,9.8c0,3.6-0.7,7-2,10.3c-1.3,3.3-3.3,6.2-5.7,8.7c-2.5,2.5-5.4,4.5-8.8,5.9
    c-3.4,1.4-7.1,2.1-11.1,2.1C281.5,142.6,277.6,141.8,274.1,140.2z M295.2,136.7c2.7-1.2,4.9-2.7,6.8-4.5c2-2,3.5-4.2,4.4-6.7
    c1-2.5,1.5-5.5,1.5-8.9c0-2.6-0.5-5.2-1.6-8c-1-2.8-2.6-5.3-4.5-7.7c-2-2.4-4.4-4.3-7.2-5.7c-2.8-1.4-5.9-2.2-9.2-2.2
    c-2.4,0-4.9,0.5-7.4,1.4c-2.5,0.9-4.8,2.4-6.9,4.2c-2.1,1.9-3.8,4.1-5,6.8c-1.3,2.7-1.9,5.6-1.9,8.9s0.7,6.5,2,9.5
    c1.3,3.1,3.2,5.9,5.7,8.3c2.1,2.1,4.3,3.7,6.8,4.8c2.4,1,5.2,1.6,8.3,1.6C289.8,138.5,292.5,137.9,295.2,136.7z"/>
  <path d="M321.2,90.5h8.7l35.1,39.3V94.7c0-0.9-0.2-1.6-0.7-2c-0.5-0.4-1.2-0.8-2.2-1.1v-1.1h10.1v1.1
    c-1.9,0.4-2.8,1.5-2.8,3.5v45.9h-1.8l-39-43.7v38.1c0,2.8,1,4.3,3.1,4.5v1.1h-10.2v-1.1c0.8-0.1,1.5-0.5,2-1
    c0.5-0.5,0.7-1.2,0.7-2.1V95.3c0-0.9-0.2-1.8-0.6-2.4c-0.4-0.7-1.2-1.1-2.3-1.3V90.5z"/>
  <path d="M383.4,92.4c0.8-0.7,1.8-1.7,3.1-3.1c0.2-0.2,0.4-0.4,0.5-0.5h1.5c0.8,0.8,1.4,1.8,1.9,2.9
    c0.4,1.1,0.7,2.2,0.7,3.3c0,1.9-0.7,3.7-2,5.5c-1.3,1.8-2.9,3.4-4.8,4.9l-1.3-1.6c1-0.9,1.8-1.9,2.6-3.1s1.1-2.4,1.1-3.6
    c0-1-0.2-1.8-0.7-2.4c-0.5-0.6-1.2-0.9-2.2-1.1L383.4,92.4z"/>
  <path d="M402.2,90.5h45.1l3.7,7.4h-1.3c-0.8-0.9-1.7-1.6-2.8-2.2c-1.1-0.6-2.2-0.9-3.3-0.9h-16.1v41.3
    c0,0.9,0.2,1.7,0.7,2.4c0.4,0.7,1.1,1.1,2.1,1.3v1.1h-10.8v-1.1c1.6-0.5,2.4-1.5,2.4-3v-42h-15.3c-1.6,0-3,0.3-4.2,0.9
    c-1.2,0.6-2.1,1.3-2.9,2.3h-1.2L402.2,90.5z"/>
  <path d="M473.7,129.5c1.7,2.6,3.9,4.7,6.8,6.2c2.9,1.5,5.8,2.3,8.7,2.3c3.5,0,6.2-0.9,8.4-2.7c2.1-1.8,3.2-4.1,3.2-6.9
    c0-1.5-0.3-2.8-1-3.9c-0.7-1.2-1.6-2.2-2.7-3.1c-1.1-0.9-2.3-1.8-3.7-2.5c-1.3-0.7-3-1.6-5.1-2.6c-2.4-1.1-4.3-2.1-5.8-3
    c-1.5-0.9-2.9-1.8-4.2-3c-1.3-1.1-2.4-2.5-3.2-4c-0.8-1.5-1.2-3.3-1.2-5.2c0-3.4,1.3-6.2,3.8-8.5c2.5-2.3,6-3.4,10.4-3.4
    c2.7,0,4.9,0.3,6.7,0.8c1.8,0.5,3.3,1.2,4.6,2l1.7-2.1h1.1l2.1,10.8h-1.3c-1.8-2.4-3.9-4.2-6.4-5.5c-2.4-1.2-5-1.8-7.8-1.8
    c-3.1,0-5.5,0.7-7.2,2c-1.8,1.3-2.6,3.1-2.6,5.2c0,1.2,0.3,2.3,0.9,3.3s1.4,1.9,2.4,2.7c1,0.8,2.1,1.5,3.3,2.2
    c1.2,0.7,2.7,1.4,4.7,2.3c2.5,1.2,4.5,2.2,6.1,3.1c1.6,0.9,3.2,2,4.7,3.3c1.5,1.3,2.6,2.8,3.5,4.6c0.9,1.8,1.3,3.8,1.3,6.1
    c0,1.2-0.2,2.5-0.7,4.1c-0.5,1.5-1.2,3.1-2.4,4.6c-1.1,1.5-2.8,2.8-4.9,3.8c-2.1,1-4.8,1.5-7.9,1.5c-2.2,0-4.2-0.2-5.9-0.7
    c-1.7-0.5-3.4-1.2-5.1-2.1l-1.6,2.3h-1.1l-3.8-12L473.7,129.5z"/>
  <path d="M559.6,90.5h11.1v1.1c-1.1,0.1-1.8,0.4-2.3,0.9c-0.4,0.5-0.6,1.3-0.6,2.3c0,0.1,0,0.3,0.1,0.6
    c0,0.4,0,0.6,0,0.7l2.7,39.3c0.1,1.6,0.4,2.7,0.8,3.3c0.4,0.6,1.1,1,2.1,1.2v1.1h-11v-1.1c0.9-0.2,1.6-0.6,2-1.1
    c0.4-0.6,0.6-1.4,0.6-2.6c0-0.2,0-0.4-0.1-0.6c0-0.3,0-0.5,0-0.6l-2.8-39.4l-19,38.3h-1.1L522.4,96l-2.5,38.7c0,0.2,0,0.5,0,0.6
    l-0.1,0.6c0,1.3,0.2,2.3,0.6,2.9c0.4,0.6,1,1,1.9,1.1v1.1h-9.7v-1.1c1.8-0.4,2.7-1.6,2.8-3.5l2.5-39.4c0-0.2,0-0.5,0-0.8
    c0-0.2,0.1-0.5,0.1-0.7c0-1.2-0.2-2.1-0.6-2.7c-0.4-0.6-1.3-1-2.6-1.1v-1.1h11.2l16.9,33.4L559.6,90.5z"/>
  <path d="M595.2,140.2c-3.4-1.6-6.3-3.7-8.6-6.3c-2.3-2.6-4-5.5-5.1-8.6c-1.2-3.1-1.7-6.1-1.7-9.1
    c0-3.7,0.7-7.2,2.1-10.5c1.4-3.3,3.4-6.3,5.9-8.8c2.5-2.5,5.5-4.5,8.9-5.9c3.4-1.4,7.1-2.1,10.9-2.1c4.1,0,7.8,0.7,11.1,2.2
    c3.4,1.5,6.2,3.5,8.6,6.1c2.4,2.6,4.2,5.4,5.4,8.7c1.2,3.2,1.8,6.5,1.8,9.8c0,3.6-0.7,7-2,10.3c-1.3,3.3-3.3,6.2-5.7,8.7
    c-2.5,2.5-5.4,4.5-8.8,5.9c-3.4,1.4-7.1,2.1-11.1,2.1C602.5,142.6,598.6,141.8,595.2,140.2z M616.3,136.7c2.7-1.2,4.9-2.7,6.8-4.5
    c2-2,3.5-4.2,4.4-6.7c1-2.5,1.5-5.5,1.5-8.9c0-2.6-0.5-5.2-1.6-8c-1-2.8-2.6-5.3-4.5-7.7c-2-2.4-4.4-4.3-7.2-5.7
    c-2.8-1.4-5.9-2.2-9.2-2.2c-2.4,0-4.9,0.5-7.4,1.4c-2.5,0.9-4.8,2.4-6.9,4.2c-2.1,1.9-3.8,4.1-5,6.8c-1.3,2.7-1.9,5.6-1.9,8.9
    s0.7,6.5,2,9.5c1.3,3.1,3.2,5.9,5.7,8.3c2.1,2.1,4.3,3.7,6.8,4.8c2.4,1,5.2,1.6,8.3,1.6C610.8,138.5,613.6,137.9,616.3,136.7z"/>
  <path d="M642.6,90.5h10.7l0.1,1.1c-1.8,0.6-2.6,1.8-2.6,3.5v16l18.8-16c1.1-0.9,1.6-1.8,1.6-2.4c0-0.7-0.5-1.1-1.5-1.1
    v-1.1h11.5v1.1c-0.9,0.3-2,0.9-3.3,1.8s-2.4,1.7-3.4,2.5L657,111c2.9,1.4,5.4,2.8,7.3,4c2,1.3,4,2.9,6.1,5c2,2,3.6,4,4.9,6
    c1.3,2,2.6,4.4,4,7.2c1.1,2.1,2,3.7,2.6,4.7c0.7,1,1.4,1.6,2.3,2v1.1h-11.6v-1.1c1.3-0.2,2-0.9,2-2.1c0-0.6-0.2-1.5-0.6-2.7
    c-0.4-1.2-1-2.5-1.7-4.1c-0.8-1.5-1.8-3.1-2.9-4.8c-1.2-1.6-2.5-3.2-4-4.7c-0.8-0.8-1.8-1.7-2.9-2.6c-1.2-0.9-2.4-1.8-3.8-2.6
    c-1.3-0.8-2.7-1.5-4-2.2c-1.3-0.6-2.6-1.1-3.9-1.4v23.6c0,0.8,0.2,1.5,0.7,2.1c0.5,0.7,1.1,1.1,2,1.4v1.1h-10.7v-1.1
    c0.8-0.2,1.4-0.6,1.8-1.2c0.4-0.6,0.6-1.3,0.6-2.1V95.2c0-0.9-0.2-1.7-0.6-2.3c-0.4-0.6-1.1-1.1-1.9-1.3V90.5z"/>
  <path d="M687.9,90.5h34.6l3,7.5h-1.2c-0.8-1-1.8-1.8-3-2.3c-1.2-0.5-2.8-0.8-4.9-0.8h-20.2v15.9h23.4
    c0.8,0,1.5-0.2,2.1-0.7c0.7-0.5,1-1.1,1.1-1.8h1v9.4h-1c-0.4-1.7-1.5-2.5-3.3-2.5h-23.4v21.4h20.9c2.1,0,3.7-0.2,4.7-0.7
    c1.1-0.5,2.1-1.3,3.1-2.5h1.3l-3,7.6h-35.1v-1.1c0.7-0.2,1.3-0.5,1.8-1.1c0.5-0.5,0.7-1.1,0.7-1.6v-42c0-1.8-0.9-3.1-2.6-3.6V90.5z
    "/>
  <path d="M74.7,175.7h32.4l2.9,7.4h-1.2c-0.7-0.9-1.6-1.7-2.7-2.2c-1.1-0.5-2.3-0.8-3.6-0.8H82.8v16.7h21.5
    c1.5,0,2.6-0.8,3.2-2.5h1v9.4h-1c-0.1-0.8-0.5-1.4-1.2-1.9c-0.6-0.5-1.4-0.7-2.2-0.7H82.8v20.1c0,1,0.2,1.9,0.6,2.6
    c0.4,0.7,1.1,1.1,2.1,1.4v1.1H74.8V225c1.6-0.4,2.3-1.3,2.3-2.8v-42.2c0-0.8-0.2-1.4-0.7-2c-0.5-0.6-1.1-1-1.8-1.2L74.7,175.7
    L74.7,175.7z"/>
  <path d="M131.5,225.4c-3.4-1.6-6.3-3.7-8.6-6.3s-4-5.5-5.1-8.6c-1.2-3.1-1.7-6.1-1.7-9.1c0-3.7,0.7-7.2,2.1-10.5
    c1.4-3.3,3.4-6.3,5.9-8.8c2.5-2.5,5.5-4.5,8.9-5.9c3.4-1.4,7.1-2.1,10.9-2.1c4.1,0,7.8,0.7,11.1,2.2c3.4,1.5,6.2,3.5,8.6,6.1
    c2.4,2.6,4.2,5.4,5.4,8.7c1.2,3.2,1.8,6.5,1.8,9.8c0,3.6-0.7,7-2,10.3c-1.3,3.3-3.3,6.2-5.7,8.7c-2.5,2.5-5.4,4.5-8.8,5.9
    c-3.4,1.4-7.1,2.1-11.1,2.1C138.9,227.8,134.9,227,131.5,225.4z M152.6,221.9c2.7-1.2,4.9-2.7,6.8-4.5c2-2,3.5-4.2,4.4-6.7
    c1-2.5,1.5-5.5,1.5-8.9c0-2.6-0.5-5.2-1.6-8c-1-2.8-2.6-5.3-4.5-7.7c-2-2.4-4.4-4.3-7.2-5.7c-2.8-1.4-5.9-2.2-9.2-2.2
    c-2.4,0-4.9,0.5-7.4,1.4c-2.5,0.9-4.8,2.4-6.9,4.2c-2.1,1.9-3.8,4.1-5,6.8c-1.3,2.7-1.9,5.6-1.9,8.9s0.7,6.5,2,9.5
    c1.3,3.1,3.2,5.9,5.7,8.3c2.1,2.1,4.3,3.7,6.8,4.8c2.4,1,5.2,1.6,8.3,1.6C147.2,223.7,149.9,223.1,152.6,221.9z"/>
  <path d="M178.9,175.7h20.7c1.6,0,3.3,0.2,4.9,0.7c1.7,0.5,3.2,1.3,4.7,2.3c1.4,1,2.6,2.4,3.4,4
    c0.9,1.6,1.3,3.5,1.3,5.7c0,4.1-1.3,7.2-4,9.3c-2.7,2.1-6.4,3.3-11.1,3.5c2.1,1.2,4,2.4,5.6,3.7c1.6,1.3,3,2.7,4.4,4.2
    c1.3,1.5,2.6,3.1,3.7,4.9c1.2,1.8,2.4,3.8,3.7,6.2c0.9,1.6,1.6,2.8,2.2,3.5c0.6,0.8,1.2,1.2,2,1.3v1.1h-11.5V225
    c0.7-0.1,1.2-0.4,1.5-0.8c0.3-0.4,0.4-0.9,0.4-1.4c0-1.3-0.6-3-1.7-5.1c-1.2-2.1-2.7-4.4-4.7-6.7c-2-2.3-4.2-4.4-6.7-6.2
    c-2.5-1.8-5-3.1-7.6-3.9v-3.1h5.5c4.8,0,8.3-1,10.4-3.1c1.6-1.5,2.3-3.5,2.3-6.1c0-2.7-1-4.7-3.1-6.3c-2-1.5-4.7-2.3-8-2.3h-9.9v41
    c0,1.1,0.2,2.1,0.6,2.8c0.4,0.8,1,1.2,2,1.2v1.1H179V225c1.7-0.4,2.6-1.7,2.6-3.7v-40.6c0-2.3-0.9-3.6-2.6-4V175.7z"/>
  <path d="M242,175.7h34.6l3,7.5h-1.2c-0.8-1-1.8-1.8-3-2.3c-1.2-0.5-2.8-0.8-4.9-0.8h-20.2V196h23.4
    c0.8,0,1.5-0.2,2.1-0.7c0.7-0.5,1-1.1,1.1-1.8h1v9.4h-1c-0.4-1.7-1.5-2.5-3.3-2.5h-23.4v21.4h20.9c2.1,0,3.7-0.2,4.7-0.7
    s2.1-1.3,3.1-2.5h1.3l-3,7.6h-35.1V225c0.7-0.2,1.3-0.5,1.8-1.1c0.5-0.5,0.7-1.1,0.7-1.6v-42c0-1.8-0.9-3.1-2.6-3.6V175.7z"/>
  <path d="M288.8,175.7h8.7l35.1,39.3v-35.1c0-0.9-0.2-1.6-0.7-2c-0.5-0.4-1.2-0.8-2.2-1.1v-1.1h10.1v1.1
    c-1.9,0.4-2.8,1.5-2.8,3.5v45.9h-1.8l-39-43.7v38.1c0,2.8,1,4.3,3.1,4.5v1.1H289V225c0.8-0.1,1.5-0.5,2-1c0.5-0.5,0.7-1.2,0.7-2.1
    v-41.5c0-0.9-0.2-1.8-0.6-2.4c-0.4-0.7-1.2-1.1-2.3-1.3V175.7z"/>
  <path d="M364.1,175.7h10.8v1.1c-1,0.3-1.7,0.8-2,1.5c-0.4,0.7-0.5,1.5-0.5,2.4v29.9c0,3.1-0.4,5.8-1.2,8
    c-0.8,2.2-1.8,3.9-3.2,5.2c-1.3,1.3-2.8,2.2-4.4,2.8c-1.6,0.6-3.4,0.9-5.2,0.9c-3.2,0-6-0.8-8.4-2.3c-2.4-1.5-4.4-3.9-6.2-7.1
    l4.9-6.3l1.1,0.6c-0.4,1-0.6,2.1-0.6,3.3c0,2.2,0.8,4,2.4,5.5c1.6,1.5,3.6,2.2,5.9,2.2c2.1,0,3.8-0.4,5.1-1.2
    c1.3-0.8,2.2-1.9,2.8-3.2c0.6-1.3,1-2.7,1.1-4.1s0.2-3.1,0.2-4.9v-29.3c0-0.9-0.2-1.8-0.6-2.5c-0.4-0.7-1.1-1.2-2-1.4V175.7z"/>
  <path d="M397.8,225.4c-3.4-1.6-6.3-3.7-8.6-6.3s-4-5.5-5.1-8.6c-1.2-3.1-1.7-6.1-1.7-9.1c0-3.7,0.7-7.2,2.1-10.5
    c1.4-3.3,3.4-6.3,5.9-8.8c2.5-2.5,5.5-4.5,8.9-5.9s7.1-2.1,10.9-2.1c4.1,0,7.8,0.7,11.1,2.2c3.4,1.5,6.2,3.5,8.6,6.1
    c2.4,2.6,4.2,5.4,5.4,8.7c1.2,3.2,1.8,6.5,1.8,9.8c0,3.6-0.7,7-2,10.3c-1.3,3.3-3.3,6.2-5.7,8.7c-2.5,2.5-5.4,4.5-8.8,5.9
    s-7.1,2.1-11.1,2.1C405.2,227.8,401.3,227,397.8,225.4z M418.9,221.9c2.7-1.2,4.9-2.7,6.8-4.5c2-2,3.5-4.2,4.4-6.7
    c1-2.5,1.5-5.5,1.5-8.9c0-2.6-0.5-5.2-1.6-8c-1-2.8-2.6-5.3-4.5-7.7c-2-2.4-4.4-4.3-7.2-5.7c-2.8-1.4-5.9-2.2-9.2-2.2
    c-2.4,0-4.9,0.5-7.4,1.4c-2.5,0.9-4.8,2.4-6.9,4.2c-2.1,1.9-3.8,4.1-5,6.8c-1.3,2.7-1.9,5.6-1.9,8.9s0.7,6.5,2,9.5
    c1.3,3.1,3.2,5.9,5.7,8.3c2.1,2.1,4.3,3.7,6.8,4.8c2.4,1,5.2,1.6,8.3,1.6C413.5,223.7,416.2,223.1,418.9,221.9z"/>
  <path d="M436.1,175.7h11.8v1.1c-1.2,0.2-1.8,0.7-1.8,1.5c0,0.4,0.2,0.9,0.6,1.3l14.7,20l13.3-19
    c0.6-0.9,0.9-1.7,0.9-2.4c0-0.4-0.1-0.8-0.4-1c-0.3-0.3-0.8-0.4-1.4-0.4v-1.1h10.7v1.1c-0.9,0.2-1.8,0.7-2.7,1.5s-1.6,1.7-2.3,2.7
    l-16,23.4v17.3c0,0.9,0.2,1.6,0.7,2.2s1.1,1,1.9,1.1v1.1h-10.7V225c0.8-0.2,1.4-0.6,1.8-1.2c0.4-0.6,0.7-1.2,0.7-1.9v-18.1
    l-17.3-23.5l-0.1-0.1c-0.9-1.1-1.6-2-2.2-2.6c-0.6-0.6-1.3-0.9-2.1-0.9V175.7z"/>
  <path d="M534.5,175.7h11.1v1.1c-1.1,0.1-1.8,0.4-2.3,0.9c-0.4,0.5-0.6,1.3-0.6,2.3c0,0.1,0,0.3,0.1,0.6
    c0,0.4,0,0.6,0,0.7l2.7,39.3c0.1,1.6,0.4,2.7,0.8,3.3c0.4,0.6,1.1,1,2.1,1.2v1.1h-11V225c0.9-0.2,1.6-0.6,2-1.1
    c0.4-0.6,0.6-1.4,0.6-2.6c0-0.2,0-0.4-0.1-0.6c0-0.3,0-0.5,0-0.6l-2.8-39.4l-19,38.3h-1.1l-19.5-37.9l-2.5,38.7c0,0.2,0,0.5,0,0.6
    l-0.1,0.6c0,1.3,0.2,2.3,0.6,2.9s1,1,1.9,1.1v1.1h-9.7V225c1.8-0.4,2.7-1.6,2.8-3.5l2.5-39.4c0-0.2,0-0.5,0-0.8
    c0-0.2,0.1-0.5,0.1-0.7c0-1.2-0.2-2.1-0.6-2.7c-0.4-0.6-1.3-1-2.6-1.1v-1.1H501l16.9,33.4L534.5,175.7z"/>
  <path d="M555.6,175.7h34.6l3,7.5h-1.2c-0.8-1-1.8-1.8-3-2.3c-1.2-0.5-2.8-0.8-4.9-0.8h-20.2V196h23.4
    c0.8,0,1.5-0.2,2.1-0.7c0.7-0.5,1-1.1,1.1-1.8h1v9.4h-1c-0.4-1.7-1.5-2.5-3.3-2.5h-23.4v21.4h20.9c2.1,0,3.7-0.2,4.7-0.7
    c1.1-0.5,2.1-1.3,3.1-2.5h1.3l-3,7.6h-35.1V225c0.7-0.2,1.3-0.5,1.8-1.1c0.5-0.5,0.7-1.1,0.7-1.6v-42c0-1.8-0.9-3.1-2.6-3.6V175.7z
    "/>
  <path d="M602.3,175.7h8.7l35.1,39.3v-35.1c0-0.9-0.2-1.6-0.7-2c-0.5-0.4-1.2-0.8-2.2-1.1v-1.1h10.1v1.1
    c-1.9,0.4-2.8,1.5-2.8,3.5v45.9h-1.8l-39-43.7v38.1c0,2.8,1,4.3,3.1,4.5v1.1h-10.2V225c0.8-0.1,1.5-0.5,2-1
    c0.5-0.5,0.7-1.2,0.7-2.1v-41.5c0-0.9-0.2-1.8-0.6-2.4c-0.4-0.7-1.2-1.1-2.3-1.3V175.7z"/>
  <path d="M661.9,175.7H707l3.7,7.4h-1.3c-0.8-0.9-1.7-1.6-2.8-2.2c-1.1-0.6-2.2-0.9-3.3-0.9h-16.1v41.3
    c0,0.9,0.2,1.7,0.7,2.4c0.4,0.7,1.1,1.1,2.1,1.3v1.1h-10.8V225c1.6-0.5,2.4-1.5,2.4-3v-42h-15.3c-1.6,0-3,0.3-4.2,0.9
    c-1.2,0.6-2.1,1.3-2.9,2.3h-1.2L661.9,175.7z"/>
  <path d="M703.2,222.6c1.5-1.4,2.7-2.6,3.7-3.6h1.3c0.8,0.7,1.4,1.6,1.9,2.7c0.5,1.1,0.7,2.3,0.7,3.5
    c0,1.9-0.6,3.7-1.9,5.5s-2.9,3.4-4.8,4.9l-1.3-1.6c1.1-1.1,2-2.2,2.7-3.4c0.7-1.2,1-2.3,1-3.5c0-1-0.3-1.9-0.9-2.5
    s-1.3-0.9-2.2-0.9L703.2,222.6z"/>
  <path d="M164.3,260.9h10.8v1.1c-1.5,0.1-2.3,0.7-2.3,1.6c0,0.4,0.2,1.1,0.5,1.9l13.6,36.8l12.4-35.7
    c0.4-1.2,0.6-2,0.6-2.6c0-1.1-0.7-1.8-2-2.1v-1.1h9.6v1.1c-0.8,0-1.5,0.5-2.2,1.5c-0.7,1-1.2,2-1.6,3.2l-15.8,46.1h-3.1l-11-30.2
    c-0.9-2.4-2.1-5.9-3.6-10.4c-0.4-1.3-0.8-2.4-1.1-3.5c-0.9,2.7-1.8,5.3-2.6,7.7c-0.8,2.4-1.7,4.9-2.6,7.4l-10.1,28.9h-3.3L134,267
    c-0.4-1.3-0.9-2.4-1.6-3.3c-0.6-0.9-1.4-1.5-2.3-1.8v-1.1h11.2v1.1c-0.7,0-1.2,0.2-1.6,0.7c-0.3,0.5-0.5,1.1-0.5,1.8
    c0,0.5,0.1,0.9,0.2,1.3l13.1,36.8l12.9-36.5c0.3-1,0.5-1.7,0.5-2.1c0-0.9-0.6-1.5-1.7-2.1V260.9z"/>
  <path d="M213.1,260.9h34.6l3,7.5h-1.2c-0.8-1-1.8-1.8-3-2.3c-1.2-0.5-2.8-0.8-4.9-0.8h-20.2v15.9h23.4
    c0.8,0,1.5-0.2,2.1-0.7c0.7-0.5,1-1.1,1.1-1.8h1v9.4h-1c-0.4-1.7-1.5-2.5-3.3-2.5h-23.4V307h20.9c2.1,0,3.7-0.2,4.7-0.7
    s2.1-1.3,3.1-2.5h1.3l-3,7.6h-35.1v-1.1c0.7-0.2,1.3-0.5,1.8-1.1c0.5-0.5,0.7-1.1,0.7-1.6v-42c0-1.8-0.9-3.1-2.6-3.6V260.9z"/>
  <path d="M277.7,299.9c1.7,2.6,3.9,4.7,6.8,6.2c2.9,1.5,5.8,2.3,8.7,2.3c3.5,0,6.2-0.9,8.4-2.7c2.1-1.8,3.2-4.1,3.2-6.9
    c0-1.5-0.3-2.8-1-3.9c-0.7-1.2-1.6-2.2-2.7-3.1c-1.1-0.9-2.3-1.8-3.7-2.5c-1.3-0.7-3-1.6-5.1-2.6c-2.4-1.1-4.3-2.1-5.8-3
    c-1.5-0.9-2.9-1.8-4.2-3c-1.3-1.1-2.4-2.5-3.2-4c-0.8-1.5-1.2-3.3-1.2-5.2c0-3.4,1.3-6.2,3.8-8.5c2.5-2.3,6-3.4,10.4-3.4
    c2.7,0,4.9,0.3,6.7,0.8c1.8,0.5,3.3,1.2,4.6,2l1.7-2.1h1.1l2.1,10.8h-1.3c-1.8-2.4-3.9-4.2-6.4-5.5c-2.4-1.2-5-1.8-7.8-1.8
    c-3.1,0-5.5,0.7-7.2,2c-1.8,1.3-2.6,3.1-2.6,5.2c0,1.2,0.3,2.3,0.9,3.3c0.6,1,1.4,1.9,2.4,2.7c1,0.8,2.1,1.5,3.3,2.2
    c1.2,0.7,2.7,1.4,4.7,2.3c2.5,1.2,4.5,2.2,6.1,3.1c1.6,0.9,3.2,2,4.7,3.3c1.5,1.3,2.6,2.8,3.5,4.6c0.9,1.8,1.3,3.8,1.3,6.1
    c0,1.2-0.2,2.5-0.7,4.1c-0.5,1.5-1.2,3.1-2.4,4.6c-1.1,1.5-2.8,2.8-4.9,3.8c-2.1,1-4.8,1.5-7.9,1.5c-2.2,0-4.2-0.2-5.9-0.7
    c-1.7-0.5-3.4-1.2-5.1-2.1l-1.6,2.3h-1.1l-3.8-12L277.7,299.9z"/>
  <path d="M363.6,260.9h11.1v1.1c-1.1,0.1-1.8,0.4-2.3,0.9c-0.4,0.5-0.6,1.3-0.6,2.3c0,0.1,0,0.3,0.1,0.6
    c0,0.4,0,0.6,0,0.7l2.7,39.3c0.1,1.6,0.4,2.7,0.8,3.3c0.4,0.6,1.1,1,2.1,1.2v1.1h-11v-1.1c0.9-0.2,1.6-0.6,2-1.1
    c0.4-0.6,0.6-1.4,0.6-2.6c0-0.2,0-0.4-0.1-0.6c0-0.3,0-0.5,0-0.6l-2.8-39.4l-19,38.3h-1.1l-19.5-37.9l-2.5,38.7c0,0.2,0,0.5,0,0.6
    l-0.1,0.6c0,1.3,0.2,2.3,0.6,2.9c0.4,0.6,1,1,1.9,1.1v1.1h-9.7v-1.1c1.8-0.4,2.7-1.6,2.8-3.5l2.5-39.4c0-0.2,0-0.5,0-0.8
    c0-0.2,0.1-0.5,0.1-0.7c0-1.2-0.2-2.1-0.6-2.7c-0.4-0.6-1.3-1-2.6-1.1v-1.1h11.2l16.9,33.4L363.6,260.9z"/>
  <path d="M399.2,310.6c-3.4-1.6-6.3-3.7-8.6-6.3s-4-5.5-5.1-8.6c-1.2-3.1-1.7-6.1-1.7-9.1c0-3.7,0.7-7.2,2.1-10.5
    c1.4-3.3,3.4-6.3,5.9-8.8c2.5-2.5,5.5-4.5,8.9-5.9s7.1-2.1,10.9-2.1c4.1,0,7.8,0.7,11.1,2.2c3.4,1.5,6.2,3.5,8.6,6.1
    c2.4,2.6,4.2,5.4,5.4,8.7c1.2,3.2,1.8,6.5,1.8,9.8c0,3.6-0.7,7-2,10.3c-1.3,3.3-3.3,6.2-5.7,8.7c-2.5,2.5-5.4,4.5-8.8,5.9
    s-7.1,2.1-11.1,2.1C406.5,313,402.6,312.2,399.2,310.6z M420.3,307.1c2.7-1.2,4.9-2.7,6.8-4.5c2-2,3.5-4.2,4.4-6.7
    c1-2.5,1.5-5.5,1.5-8.9c0-2.6-0.5-5.2-1.6-8c-1-2.8-2.6-5.3-4.5-7.7c-2-2.4-4.4-4.3-7.2-5.7c-2.8-1.4-5.9-2.2-9.2-2.2
    c-2.4,0-4.9,0.5-7.4,1.4c-2.5,0.9-4.8,2.4-6.9,4.2c-2.1,1.9-3.8,4.1-5,6.8c-1.3,2.7-1.9,5.6-1.9,8.9s0.7,6.5,2,9.5
    c1.3,3.1,3.2,5.9,5.7,8.3c2.1,2.1,4.3,3.7,6.8,4.8c2.4,1,5.2,1.6,8.3,1.6C414.8,308.9,417.6,308.3,420.3,307.1z"/>
  <path d="M446.6,260.9h10.7l0.1,1.1c-1.8,0.6-2.6,1.8-2.6,3.5v16l18.8-16c1.1-0.9,1.6-1.8,1.6-2.4
    c0-0.7-0.5-1.1-1.5-1.1v-1.1h11.5v1.1c-0.9,0.3-2,0.9-3.3,1.8s-2.4,1.7-3.4,2.5L461,281.4c2.9,1.4,5.4,2.8,7.3,4c2,1.3,4,2.9,6.1,5
    c2,2,3.6,4,4.9,6c1.3,2,2.6,4.4,4,7.2c1.1,2.1,2,3.7,2.6,4.7c0.7,1,1.4,1.6,2.3,2v1.1h-11.6v-1.1c1.3-0.2,2-0.9,2-2.1
    c0-0.6-0.2-1.5-0.6-2.7c-0.4-1.2-1-2.5-1.7-4.1c-0.8-1.5-1.8-3.1-2.9-4.8c-1.2-1.6-2.5-3.2-4-4.7c-0.8-0.8-1.8-1.7-2.9-2.6
    c-1.2-0.9-2.4-1.8-3.8-2.6c-1.3-0.8-2.7-1.5-4-2.2c-1.3-0.6-2.6-1.1-3.9-1.4v23.6c0,0.8,0.2,1.5,0.7,2.1c0.5,0.7,1.1,1.1,2,1.4v1.1
    h-10.7v-1.1c0.8-0.2,1.4-0.6,1.8-1.2c0.4-0.6,0.6-1.3,0.6-2.1v-41.3c0-0.9-0.2-1.7-0.6-2.3c-0.4-0.6-1.1-1.1-1.9-1.3V260.9z"/>
  <path d="M491.9,260.9h34.6l3,7.5h-1.2c-0.8-1-1.8-1.8-3-2.3c-1.2-0.5-2.8-0.8-4.9-0.8h-20.2v15.9h23.4
    c0.8,0,1.5-0.2,2.1-0.7c0.7-0.5,1-1.1,1.1-1.8h1v9.4h-1c-0.4-1.7-1.5-2.5-3.3-2.5h-23.4V307h20.9c2.1,0,3.7-0.2,4.7-0.7
    c1.1-0.5,2.1-1.3,3.1-2.5h1.3l-3,7.6h-35.1v-1.1c0.7-0.2,1.3-0.5,1.8-1.1c0.5-0.5,0.7-1.1,0.7-1.6v-42c0-1.8-0.9-3.1-2.6-3.6V260.9
    z"/>
  <path d="M551.2,260.9h45.1l3.7,7.4h-1.3c-0.8-0.9-1.7-1.6-2.8-2.2c-1.1-0.6-2.2-0.9-3.3-0.9h-16.1v41.3
    c0,0.9,0.2,1.7,0.7,2.4c0.4,0.7,1.1,1.1,2.1,1.3v1.1h-10.8v-1.1c1.6-0.5,2.4-1.5,2.4-3v-42h-15.3c-1.6,0-3,0.3-4.2,0.9
    c-1.2,0.6-2.1,1.3-2.9,2.3h-1.2L551.2,260.9z"/>
  <path d="M617.3,310.6c-3.4-1.6-6.3-3.7-8.6-6.3c-2.3-2.6-4-5.5-5.1-8.6c-1.2-3.1-1.7-6.1-1.7-9.1
    c0-3.7,0.7-7.2,2.1-10.5c1.4-3.3,3.4-6.3,5.9-8.8c2.5-2.5,5.5-4.5,8.9-5.9s7.1-2.1,10.9-2.1c4.1,0,7.8,0.7,11.1,2.2
    c3.4,1.5,6.2,3.5,8.6,6.1c2.4,2.6,4.2,5.4,5.4,8.7c1.2,3.2,1.8,6.5,1.8,9.8c0,3.6-0.7,7-2,10.3c-1.3,3.3-3.3,6.2-5.7,8.7
    c-2.5,2.5-5.4,4.5-8.8,5.9S633,313,629,313C624.6,313,620.7,312.2,617.3,310.6z M638.4,307.1c2.7-1.2,4.9-2.7,6.8-4.5
    c2-2,3.5-4.2,4.4-6.7c1-2.5,1.5-5.5,1.5-8.9c0-2.6-0.5-5.2-1.6-8c-1-2.8-2.6-5.3-4.5-7.7c-2-2.4-4.4-4.3-7.2-5.7
    c-2.8-1.4-5.9-2.2-9.2-2.2c-2.4,0-4.9,0.5-7.4,1.4c-2.5,0.9-4.8,2.4-6.9,4.2c-2.1,1.9-3.8,4.1-5,6.8c-1.3,2.7-1.9,5.6-1.9,8.9
    s0.7,6.5,2,9.5c1.3,3.1,3.2,5.9,5.7,8.3c2.1,2.1,4.3,3.7,6.8,4.8c2.4,1,5.2,1.6,8.3,1.6C632.9,308.9,635.7,308.3,638.4,307.1z"/>
  <path d="M113.9,346.1h18.7c2.4,0,4.6,0.3,6.6,0.8c2.1,0.5,3.9,1.4,5.5,2.6c1.6,1.2,2.9,2.6,3.8,4.4
    c0.9,1.8,1.4,3.8,1.4,6.2c0,3.1-0.7,5.6-2.2,7.6s-3.3,3.3-5.4,4.1c-2.1,0.8-4.1,1.3-6,1.6c-1.9,0.2-3.8,0.3-5.6,0.3
    c-2,0-4-0.1-5.8-0.2v-3.6c2.9,0,5.3-0.1,7.3-0.2c2-0.1,3.9-0.5,5.8-1.1c1.8-0.6,3.3-1.6,4.5-3c1.1-1.4,1.7-3.2,1.7-5.5
    c0-2.8-1-5.1-3.1-6.9c-2.1-1.8-5.1-2.6-9-2.6h-9.7v41.5c0,1.9,0.8,3.1,2.5,3.6v1.1h-10.6v-1.1c1.7-0.6,2.5-1.7,2.5-3.3v-41.3
    c0-0.9-0.2-1.8-0.7-2.5c-0.5-0.7-1.1-1.1-2-1.3V346.1z"/>
  <path d="M156.9,346.1h20.7c1.6,0,3.3,0.2,4.9,0.7c1.7,0.5,3.2,1.3,4.7,2.3c1.4,1,2.6,2.4,3.4,4
    c0.9,1.6,1.3,3.5,1.3,5.7c0,4.1-1.3,7.2-4,9.3c-2.7,2.1-6.4,3.3-11.1,3.5c2.1,1.2,4,2.4,5.6,3.7c1.6,1.3,3,2.7,4.4,4.2
    c1.3,1.5,2.6,3.1,3.7,4.9c1.2,1.8,2.4,3.8,3.7,6.2c0.9,1.6,1.6,2.8,2.2,3.5c0.6,0.8,1.2,1.2,2,1.3v1.1h-11.5v-1.1
    c0.7-0.1,1.2-0.4,1.5-0.8c0.3-0.4,0.4-0.9,0.4-1.4c0-1.3-0.6-3-1.7-5.1c-1.2-2.1-2.7-4.4-4.7-6.7c-2-2.3-4.2-4.4-6.7-6.2
    c-2.5-1.8-5-3.1-7.6-3.9v-3.1h5.5c4.8,0,8.3-1,10.4-3.1c1.6-1.5,2.3-3.5,2.3-6.1c0-2.7-1-4.7-3.1-6.3c-2-1.5-4.7-2.3-8-2.3h-9.9v41
    c0,1.1,0.2,2.1,0.6,2.8c0.4,0.8,1,1.2,2,1.2v1.1H157v-1.1c1.7-0.4,2.6-1.7,2.6-3.7v-40.6c0-2.3-0.9-3.6-2.6-4V346.1z"/>
  <path d="M217.5,395.8c-3.4-1.6-6.3-3.7-8.6-6.3s-4-5.5-5.1-8.6c-1.2-3.1-1.7-6.1-1.7-9.1c0-3.7,0.7-7.2,2.1-10.5
    c1.4-3.3,3.4-6.3,5.9-8.8c2.5-2.5,5.5-4.5,8.9-5.9c3.4-1.4,7.1-2.1,10.9-2.1c4.1,0,7.8,0.7,11.1,2.2c3.4,1.5,6.2,3.5,8.6,6.1
    c2.4,2.6,4.2,5.4,5.4,8.7c1.2,3.2,1.8,6.5,1.8,9.8c0,3.6-0.7,7-2,10.3c-1.3,3.3-3.3,6.2-5.7,8.7c-2.5,2.5-5.4,4.5-8.8,5.9
    c-3.4,1.4-7.1,2.1-11.1,2.1C224.9,398.2,221,397.4,217.5,395.8z M238.6,392.3c2.7-1.2,4.9-2.7,6.8-4.5c2-2,3.5-4.2,4.4-6.7
    c1-2.5,1.5-5.5,1.5-8.9c0-2.6-0.5-5.2-1.6-8c-1-2.8-2.6-5.3-4.5-7.7c-2-2.4-4.4-4.3-7.2-5.7c-2.8-1.4-5.9-2.2-9.2-2.2
    c-2.4,0-4.9,0.5-7.4,1.4c-2.5,0.9-4.8,2.4-6.9,4.2c-2.1,1.9-3.8,4.1-5,6.8c-1.3,2.7-1.9,5.6-1.9,8.9s0.7,6.5,2,9.5
    c1.3,3.1,3.2,5.9,5.7,8.3c2.1,2.1,4.3,3.7,6.8,4.8c2.4,1,5.2,1.6,8.3,1.6C233.2,394.1,235.9,393.5,238.6,392.3z"/>
  <path d="M312.8,383.2c-1.2,2.1-2.5,4-3.9,5.6c-1.4,1.7-3,3.2-4.9,4.6c-1.9,1.4-4,2.4-6.4,3.2s-5.1,1.2-8.1,1.2
    c-3.7,0-7.1-0.7-10.2-2.1s-5.8-3.3-8.1-5.9c-2.3-2.5-4-5.4-5.3-8.6c-1.2-3.2-1.8-6.6-1.8-10.2c0-3.7,0.7-7.2,2.1-10.5
    c1.4-3.3,3.2-6.1,5.4-8.3c2.2-2.2,4.8-4,7.8-5.4c3-1.4,6.3-2.1,10-2.1c2.9,0,5.3,0.3,7.3,1c2,0.7,3.9,1.5,5.7,2.4l0.1,0.1
    c1.1-0.9,1.9-1.7,2.4-2.2h1.1l2.8,12.4h-1.1c-2.1-3.2-4.7-5.6-7.8-7.2c-3.1-1.6-6.4-2.4-9.8-2.4c-2.7,0-5.2,0.4-7.5,1.3
    c-2.2,0.9-4.4,2.3-6.4,4.3c-2.2,2.2-3.8,4.7-4.8,7.5c-1,2.8-1.5,5.6-1.5,8.5c0,3,0.5,5.9,1.5,8.7c1,2.8,2.4,5.3,4.3,7.4
    c1.9,2.2,4.2,3.9,6.9,5.1c2.7,1.3,5.7,1.9,8.9,1.9c3.9,0,7.3-1,10.4-2.9c3-2,5.8-4.9,8.4-8.8L312.8,383.2z"/>
  <path d="M318.3,346.1h10.9v1.1c-1.8,0.5-2.6,1.7-2.6,3.5v41.7h20.7c2,0,3.6-0.3,4.8-0.9c1.1-0.6,2.2-1.6,3.1-3h1.2
    l-2.3,8.1h-35.5v-1.1c0.7-0.1,1.2-0.4,1.7-0.9c0.5-0.5,0.7-1.1,0.7-1.6v-42.5c0-1.8-0.9-2.9-2.6-3.3V346.1z"/>
  <path d="M384.6,344.7h2.4l22.5,47.4c0.5,1.1,1,1.9,1.5,2.4s1.1,0.8,1.8,1v1.1h-10.6v-1.1c1.1-0.3,1.6-0.9,1.6-1.7
    c0-0.7-0.2-1.5-0.7-2.4l-5.4-11.4H373l-4.9,10.7c-0.6,1.2-0.9,2.2-0.9,2.8c0,0.9,0.6,1.6,1.7,2v1.1h-9.8v-1.1
    c0.9-0.3,1.6-0.7,2.1-1.2c0.4-0.5,0.9-1.4,1.5-2.6l0.3-0.6L384.6,344.7z M385.3,353.6L375,375.7h20.9L385.3,353.6z"/>
  <path d="M418.2,346.1H429v1.1c-1.7,0.3-2.6,1.4-2.6,3.2V392c0,1.9,0.9,3,2.6,3.4v1.1h-10.7v-1.1
    c1.7-0.6,2.6-1.6,2.6-3.2v-41.5c0-0.9-0.2-1.7-0.6-2.3c-0.4-0.6-1.1-1.1-2-1.3V346.1z"/>
  <path d="M483.7,346.1h11.1v1.1c-1.1,0.1-1.8,0.4-2.3,0.9c-0.4,0.5-0.6,1.3-0.6,2.3c0,0.1,0,0.3,0.1,0.6
    c0,0.4,0,0.6,0,0.7l2.7,39.3c0.1,1.6,0.4,2.7,0.8,3.3c0.4,0.6,1.1,1,2.1,1.2v1.1h-11v-1.1c0.9-0.2,1.6-0.6,2-1.1
    c0.4-0.6,0.6-1.4,0.6-2.6c0-0.2,0-0.4-0.1-0.6c0-0.3,0-0.5,0-0.6l-2.8-39.4l-19,38.3h-1.1l-19.5-37.9l-2.5,38.7c0,0.2,0,0.5,0,0.6
    l-0.1,0.6c0,1.3,0.2,2.3,0.6,2.9c0.4,0.6,1,1,1.9,1.1v1.1h-9.7v-1.1c1.8-0.4,2.7-1.6,2.8-3.5l2.5-39.4c0-0.2,0-0.5,0-0.8
    c0-0.2,0.1-0.5,0.1-0.7c0-1.2-0.2-2.1-0.6-2.7c-0.4-0.6-1.3-1-2.6-1.1v-1.1h11.2l16.9,33.4L483.7,346.1z"/>
  <path d="M536.4,395.8c-3.4-1.6-6.3-3.7-8.6-6.3c-2.3-2.6-4-5.5-5.1-8.6c-1.2-3.1-1.7-6.1-1.7-9.1
    c0-3.7,0.7-7.2,2.1-10.5c1.4-3.3,3.4-6.3,5.9-8.8c2.5-2.5,5.5-4.5,8.9-5.9c3.4-1.4,7.1-2.1,10.9-2.1c4.1,0,7.8,0.7,11.1,2.2
    c3.4,1.5,6.2,3.5,8.6,6.1c2.4,2.6,4.2,5.4,5.4,8.7c1.2,3.2,1.8,6.5,1.8,9.8c0,3.6-0.7,7-2,10.3c-1.3,3.3-3.3,6.2-5.7,8.7
    c-2.5,2.5-5.4,4.5-8.8,5.9c-3.4,1.4-7.1,2.1-11.1,2.1C543.7,398.2,539.8,397.4,536.4,395.8z M557.5,392.3c2.7-1.2,4.9-2.7,6.8-4.5
    c2-2,3.5-4.2,4.4-6.7c1-2.5,1.5-5.5,1.5-8.9c0-2.6-0.5-5.2-1.6-8c-1-2.8-2.6-5.3-4.5-7.7c-2-2.4-4.4-4.3-7.2-5.7
    c-2.8-1.4-5.9-2.2-9.2-2.2c-2.4,0-4.9,0.5-7.4,1.4c-2.5,0.9-4.8,2.4-6.9,4.2c-2.1,1.9-3.8,4.1-5,6.8c-1.3,2.7-1.9,5.6-1.9,8.9
    s0.7,6.5,2,9.5c1.3,3.1,3.2,5.9,5.7,8.3c2.1,2.1,4.3,3.7,6.8,4.8c2.4,1,5.2,1.6,8.3,1.6C552,394.1,554.8,393.5,557.5,392.3z"/>
  <path d="M619.6,346.1h10.2v1.1c-1.9,0.5-2.8,1.6-2.8,3.4v27.1c0,6.2-1.9,11.1-5.6,14.7s-8.7,5.5-14.9,5.5
    c-2.7,0-5.2-0.4-7.7-1.1c-2.5-0.7-4.8-1.9-6.9-3.6c-2.1-1.7-3.7-3.9-4.9-6.7c-1.2-2.8-1.8-6.3-1.8-10.3v-25.6
    c0-1.8-0.9-2.9-2.6-3.5v-1.1h11v1.1c-1,0.2-1.7,0.7-2.1,1.4s-0.6,1.5-0.6,2.5v24.4c0,6.2,1.4,10.7,4.3,13.5
    c1.4,1.5,3.2,2.6,5.4,3.4c2.2,0.8,4.5,1.2,7,1.2c2.2,0,4.2-0.4,6.2-1.1c1.9-0.8,3.5-1.8,4.8-3c1.6-1.6,2.7-3.3,3.3-5.2
    c0.7-1.9,1-4.3,1-7.2v-26.5c0-1.9-1-3-3-3.4V346.1z"/>
  <path d="M637.7,346.1h20.7c1.6,0,3.3,0.2,4.9,0.7c1.7,0.5,3.2,1.3,4.7,2.3c1.4,1,2.6,2.4,3.4,4s1.3,3.5,1.3,5.7
    c0,4.1-1.3,7.2-4,9.3s-6.4,3.3-11.1,3.5c2.1,1.2,4,2.4,5.6,3.7c1.6,1.3,3,2.7,4.4,4.2c1.3,1.5,2.6,3.1,3.7,4.9
    c1.2,1.8,2.4,3.8,3.7,6.2c0.9,1.6,1.6,2.8,2.2,3.5c0.6,0.8,1.2,1.2,2,1.3v1.1h-11.5v-1.1c0.7-0.1,1.2-0.4,1.5-0.8
    c0.3-0.4,0.4-0.9,0.4-1.4c0-1.3-0.6-3-1.7-5.1c-1.2-2.1-2.7-4.4-4.7-6.7c-2-2.3-4.2-4.4-6.7-6.2c-2.5-1.8-5-3.1-7.6-3.9v-3.1h5.5
    c4.8,0,8.3-1,10.4-3.1c1.6-1.5,2.3-3.5,2.3-6.1c0-2.7-1-4.7-3.1-6.3c-2-1.5-4.7-2.3-8-2.3H646v41c0,1.1,0.2,2.1,0.6,2.8
    c0.4,0.8,1,1.2,2,1.2v1.1h-10.7v-1.1c1.7-0.4,2.6-1.7,2.6-3.7v-40.6c0-2.3-0.9-3.6-2.6-4V346.1z"/>
  <path d="M285.1,431.3h32.4l2.9,7.4h-1.2c-0.7-0.9-1.6-1.7-2.7-2.2c-1.1-0.5-2.3-0.8-3.6-0.8h-19.7v16.7h21.5
    c1.5,0,2.6-0.8,3.2-2.5h1v9.4h-1c-0.1-0.8-0.5-1.4-1.2-1.9c-0.6-0.5-1.4-0.7-2.2-0.7h-21.3v20.1c0,1,0.2,1.9,0.6,2.6
    c0.4,0.7,1.1,1.1,2.1,1.4v1.1h-10.6v-1.1c1.6-0.4,2.3-1.3,2.3-2.8v-42.2c0-0.8-0.2-1.4-0.7-2c-0.5-0.6-1.1-1-1.8-1.2L285.1,431.3
    L285.1,431.3z"/>
  <path d="M343.2,429.9h2.4l22.5,47.4c0.5,1.1,1,1.9,1.5,2.4s1.1,0.8,1.8,1v1.1h-10.6v-1.1c1.1-0.3,1.6-0.9,1.6-1.7
    c0-0.7-0.2-1.5-0.7-2.4l-5.4-11.4h-24.8l-4.9,10.7c-0.6,1.2-0.9,2.2-0.9,2.8c0,0.9,0.6,1.6,1.7,2v1.1h-9.8v-1.1
    c0.9-0.3,1.6-0.7,2.1-1.2c0.4-0.5,0.9-1.4,1.5-2.6l0.3-0.6L343.2,429.9z M343.9,438.8l-10.4,22.1h20.9L343.9,438.8z"/>
  <path d="M376.8,431.3h10.8v1.1c-1.7,0.3-2.6,1.4-2.6,3.2v41.7c0,1.9,0.9,3,2.6,3.4v1.1h-10.7v-1.1
    c1.7-0.6,2.6-1.6,2.6-3.2V436c0-0.9-0.2-1.7-0.6-2.3c-0.4-0.6-1.1-1.1-2-1.3V431.3z"/>
  <path d="M396.7,431.3h45.1l3.7,7.4h-1.3c-0.8-0.9-1.7-1.6-2.8-2.2c-1.1-0.6-2.2-0.9-3.3-0.9H422v41.3
    c0,0.9,0.2,1.7,0.7,2.4c0.4,0.7,1.1,1.1,2.1,1.3v1.1H414v-1.1c1.6-0.5,2.4-1.5,2.4-3v-42h-15.3c-1.6,0-3,0.3-4.2,0.9
    c-1.2,0.6-2.1,1.3-2.9,2.3h-1.2L396.7,431.3z"/>
  <path d="M492.7,431.3h10.9v1.1c-0.9,0.2-1.5,0.6-2,1.1s-0.7,1.2-0.7,2v41.8c0,1.9,0.9,3,2.6,3.3v1.1h-10.8v-1.1
    c0.9-0.1,1.5-0.5,2-1.1s0.7-1.2,0.7-2v-22h-37.1v21.9c0,1.8,0.9,2.9,2.6,3.2v1.1h-10.7v-1.1c1.7-0.4,2.6-1.3,2.6-2.9v-41.6
    c0-2-0.8-3.2-2.5-3.8v-1.1h10.7v1.1c-1.8,0.5-2.6,1.7-2.6,3.5v15.4h37.1v-15.6c0-1.8-0.9-2.9-2.6-3.3V431.3z"/>
</g>
<g>
  <path d="M299.5,547.5c0.3,0.3,0.5,0.8,0.5,1.5c0,0.6-0.2,1.1-0.5,1.4c-0.4,0.3-0.9,0.4-1.5,0.4c-0.7,0-1.2-0.2-1.6-0.5
    c-0.3-0.3-0.5-0.8-0.5-1.5c0-0.6,0.2-1,0.5-1.4c0.3-0.3,0.8-0.5,1.5-0.5C298.7,547,299.2,547.2,299.5,547.5z"/>
  <path d="M320.3,553.7c-0.8,0.7-1.7,1.3-2.7,1.6c-0.9,0.4-1.9,0.5-2.9,0.5c-1.1,0-2.2-0.2-3.1-0.6
    c-0.9-0.4-1.7-0.9-2.4-1.6c-0.6-0.7-1.1-1.5-1.5-2.4c-0.3-0.9-0.5-1.8-0.5-2.8c0-1,0.2-2,0.5-2.9s0.9-1.7,1.6-2.4
    c0.7-0.7,1.5-1.2,2.4-1.6c0.9-0.4,1.9-0.6,3-0.6c0.8,0,1.5,0.1,2.1,0.3s1.2,0.4,1.7,0.8c0.2-0.2,0.3-0.4,0.4-0.7h0.4l0.7,3.3
    l-0.3,0c-0.7-0.9-1.4-1.5-2.3-2c-0.9-0.4-1.7-0.7-2.6-0.7c-0.8,0-1.6,0.2-2.3,0.5c-0.7,0.3-1.3,0.8-1.8,1.4c-0.5,0.6-0.9,1.3-1.2,2
    c-0.3,0.8-0.4,1.6-0.4,2.4c0,0.9,0.2,1.8,0.5,2.5c0.3,0.8,0.7,1.4,1.3,2c0.6,0.6,1.2,1,1.9,1.3c0.7,0.3,1.5,0.5,2.2,0.5
    c1.3,0,2.6-0.4,3.8-1.2v-4.1c0-0.5-0.2-0.9-0.7-1v-0.3h3.1v0.3c-0.2,0.1-0.4,0.2-0.5,0.3s-0.2,0.4-0.2,0.6V553.7z"/>
  <path d="M333.1,541.3h2.9v0.3c-0.5,0.1-0.8,0.5-0.8,1v7.6c0,1.7-0.5,3.1-1.6,4.1c-1,1-2.5,1.6-4.2,1.6
    c-0.7,0-1.5-0.1-2.2-0.3c-0.7-0.2-1.4-0.5-1.9-1c-0.6-0.5-1-1.1-1.4-1.9c-0.3-0.8-0.5-1.8-0.5-2.9v-7.2c0-0.5-0.2-0.8-0.7-1v-0.3
    h3.1v0.3c-0.3,0.1-0.5,0.2-0.6,0.4s-0.2,0.4-0.2,0.7v6.9c0,1.7,0.4,3,1.2,3.8c0.4,0.4,0.9,0.7,1.5,1c0.6,0.2,1.3,0.3,2,0.3
    c0.6,0,1.2-0.1,1.7-0.3c0.5-0.2,1-0.5,1.3-0.8c0.4-0.4,0.8-0.9,0.9-1.5c0.2-0.5,0.3-1.2,0.3-2v-7.5c0-0.5-0.3-0.9-0.8-1V541.3z"/>
  <path d="M338.3,541.3h3v0.3c-0.5,0.1-0.7,0.4-0.7,0.9v11.7c0,0.5,0.2,0.9,0.7,1v0.3h-3v-0.3c0.5-0.2,0.7-0.5,0.7-0.9
    v-11.7c0-0.3-0.1-0.5-0.2-0.7c-0.1-0.2-0.3-0.3-0.6-0.4V541.3z"/>
  <path d="M343.7,541.3h3.1v0.3c-0.5,0.1-0.7,0.5-0.7,1v11.7h5.8c0.6,0,1-0.1,1.3-0.3c0.3-0.2,0.6-0.5,0.9-0.8h0.3
    l-0.6,2.3h-10v-0.3c0.2,0,0.3-0.1,0.5-0.3c0.1-0.1,0.2-0.3,0.2-0.5v-12c0-0.5-0.2-0.8-0.7-0.9V541.3z"/>
  <path d="M352.8,541.3h12.7l1,2.1h-0.4c-0.2-0.3-0.5-0.5-0.8-0.6s-0.6-0.2-0.9-0.2H360v11.6c0,0.3,0.1,0.5,0.2,0.7
    c0.1,0.2,0.3,0.3,0.6,0.4v0.3h-3v-0.3c0.5-0.1,0.7-0.4,0.7-0.8v-11.8h-4.3c-0.5,0-0.8,0.1-1.2,0.2s-0.6,0.4-0.8,0.7h-0.3
    L352.8,541.3z"/>
  <path d="M366.8,541.3h3.3v0.3c-0.3,0.1-0.5,0.2-0.5,0.4c0,0.1,0.1,0.2,0.2,0.4l4.1,5.6l3.7-5.4
    c0.2-0.3,0.3-0.5,0.3-0.7c0-0.1,0-0.2-0.1-0.3s-0.2-0.1-0.4-0.1v-0.3h3v0.3c-0.3,0.1-0.5,0.2-0.8,0.4c-0.2,0.2-0.5,0.5-0.7,0.8
    l-4.5,6.6v4.9c0,0.3,0.1,0.5,0.2,0.6c0.1,0.2,0.3,0.3,0.5,0.3v0.3h-3v-0.3c0.2-0.1,0.4-0.2,0.5-0.4c0.1-0.2,0.2-0.3,0.2-0.5v-5.1
    l-4.9-6.6l0,0c-0.2-0.3-0.4-0.6-0.6-0.7c-0.2-0.2-0.4-0.2-0.6-0.2V541.3z"/>
  <path d="M386.6,541.3h5.8c0.5,0,0.9,0.1,1.4,0.2c0.5,0.1,0.9,0.4,1.3,0.7s0.7,0.7,1,1.1c0.2,0.5,0.4,1,0.4,1.6
    c0,1.1-0.4,2-1.1,2.6c-0.8,0.6-1.8,0.9-3.1,1c0.6,0.3,1.1,0.7,1.6,1s0.9,0.8,1.2,1.2c0.4,0.4,0.7,0.9,1,1.4c0.3,0.5,0.7,1.1,1,1.7
    c0.3,0.5,0.5,0.8,0.6,1c0.2,0.2,0.3,0.3,0.5,0.4v0.3H395v-0.3c0.2,0,0.3-0.1,0.4-0.2c0.1-0.1,0.1-0.2,0.1-0.4
    c0-0.4-0.2-0.8-0.5-1.4c-0.3-0.6-0.8-1.2-1.3-1.9s-1.2-1.2-1.9-1.8c-0.7-0.5-1.4-0.9-2.1-1.1v-0.9h1.6c1.4,0,2.3-0.3,2.9-0.9
    c0.4-0.4,0.7-1,0.7-1.7c0-0.7-0.3-1.3-0.9-1.8c-0.6-0.4-1.3-0.7-2.3-0.7h-2.8v11.5c0,0.3,0.1,0.6,0.2,0.8c0.1,0.2,0.3,0.3,0.6,0.3
    v0.3h-3v-0.3c0.5-0.1,0.7-0.5,0.7-1v-11.4c0-0.6-0.2-1-0.7-1.1V541.3z"/>
  <path d="M399.6,541.3h9.7l0.8,2.1h-0.3c-0.2-0.3-0.5-0.5-0.8-0.7c-0.3-0.2-0.8-0.2-1.4-0.2h-5.7v4.5h6.6
    c0.2,0,0.4-0.1,0.6-0.2c0.2-0.1,0.3-0.3,0.3-0.5h0.3v2.6h-0.3c-0.1-0.5-0.4-0.7-0.9-0.7h-6.6v6h5.9c0.6,0,1-0.1,1.3-0.2
    c0.3-0.1,0.6-0.4,0.9-0.7h0.4l-0.8,2.1h-9.9v-0.3c0.2-0.1,0.4-0.2,0.5-0.3c0.1-0.1,0.2-0.3,0.2-0.5v-11.8c0-0.5-0.2-0.9-0.7-1
    V541.3z"/>
  <path d="M425.5,541.3h3.1v0.3c-0.3,0-0.5,0.1-0.6,0.3s-0.2,0.4-0.2,0.7c0,0,0,0.1,0,0.2c0,0.1,0,0.2,0,0.2l0.8,11.1
    c0,0.4,0.1,0.7,0.2,0.9c0.1,0.2,0.3,0.3,0.6,0.3v0.3h-3.1v-0.3c0.3-0.1,0.5-0.2,0.6-0.3c0.1-0.2,0.2-0.4,0.2-0.7c0-0.1,0-0.1,0-0.2
    c0-0.1,0-0.1,0-0.2l-0.8-11.1l-5.4,10.8h-0.3l-5.5-10.7l-0.7,10.9c0,0.1,0,0.1,0,0.2l0,0.2c0,0.4,0.1,0.6,0.2,0.8
    c0.1,0.2,0.3,0.3,0.5,0.3v0.3h-2.7v-0.3c0.5-0.1,0.8-0.4,0.8-1l0.7-11.1c0-0.1,0-0.1,0-0.2c0-0.1,0-0.1,0-0.2
    c0-0.3-0.1-0.6-0.2-0.8c-0.1-0.2-0.4-0.3-0.7-0.3v-0.3h3.2l4.8,9.4L425.5,541.3z"/>
  <path d="M431.5,541.3h2.5l9.9,11.1v-9.9c0-0.3-0.1-0.4-0.2-0.6c-0.1-0.1-0.3-0.2-0.6-0.3v-0.3h2.8v0.3
    c-0.5,0.1-0.8,0.4-0.8,1v12.9h-0.5l-11-12.3V554c0,0.8,0.3,1.2,0.9,1.3v0.3h-2.9v-0.3c0.2,0,0.4-0.1,0.6-0.3
    c0.1-0.1,0.2-0.3,0.2-0.6v-11.7c0-0.3-0.1-0.5-0.2-0.7c-0.1-0.2-0.3-0.3-0.7-0.4V541.3z"/>
  <path d="M454.7,540.9h0.7l6.3,13.4c0.1,0.3,0.3,0.5,0.4,0.7c0.1,0.1,0.3,0.2,0.5,0.3v0.3h-3v-0.3
    c0.3-0.1,0.5-0.2,0.5-0.5c0-0.2-0.1-0.4-0.2-0.7l-1.5-3.2h-7l-1.4,3c-0.2,0.3-0.2,0.6-0.2,0.8c0,0.3,0.2,0.4,0.5,0.6v0.3h-2.8v-0.3
    c0.3-0.1,0.5-0.2,0.6-0.4c0.1-0.2,0.3-0.4,0.4-0.7l0.1-0.2L454.7,540.9z M454.9,543.4l-2.9,6.2h5.9L454.9,543.4z"/>
  <path d="M464,541.3h2.5l9.9,11.1v-9.9c0-0.3-0.1-0.4-0.2-0.6c-0.1-0.1-0.3-0.2-0.6-0.3v-0.3h2.8v0.3
    c-0.5,0.1-0.8,0.4-0.8,1v12.9H477l-11-12.3V554c0,0.8,0.3,1.2,0.9,1.3v0.3h-2.9v-0.3c0.2,0,0.4-0.1,0.5-0.3s0.2-0.3,0.2-0.6v-11.7
    c0-0.3-0.1-0.5-0.2-0.7c-0.1-0.2-0.3-0.3-0.7-0.4V541.3z"/>
  <path d="M480.8,541.3h12.7l1,2.1h-0.4c-0.2-0.3-0.5-0.5-0.8-0.6s-0.6-0.2-0.9-0.2h-4.5v11.6c0,0.3,0.1,0.5,0.2,0.7
    s0.3,0.3,0.6,0.4v0.3h-3v-0.3c0.5-0.1,0.7-0.4,0.7-0.8v-11.8H482c-0.5,0-0.8,0.1-1.2,0.2c-0.3,0.2-0.6,0.4-0.8,0.7h-0.3
    L480.8,541.3z"/>
  <path d="M504.5,547.5c0.3,0.3,0.5,0.8,0.5,1.5c0,0.6-0.2,1.1-0.5,1.4c-0.4,0.3-0.9,0.4-1.5,0.4c-0.7,0-1.2-0.2-1.6-0.5
    c-0.3-0.3-0.5-0.8-0.5-1.5c0-0.6,0.2-1,0.5-1.4c0.3-0.3,0.8-0.5,1.5-0.5C503.7,547,504.2,547.2,504.5,547.5z"/>
</g>
</svg>
