<?xml version="1.0" encoding="utf-8"?>
<svg version="1.1" id="Layer_1" xmlns="http://www.w3.org/2000/svg" xmlns:xlink="http://www.w3.org/1999/xlink" x="0px" y="0px"
   viewBox="0 0 792 612" style="enable-background:new 0 0 792 612;" xml:space="preserve">
<title>WE WATCH SO THEY REMEMBER - GUILTY REMNANT</title>
<g>
  <path d="M123.7,88.9H140v1.6c-2.3,0.2-3.4,1-3.4,2.5c0,0.6,0.2,1.6,0.7,2.9l20.4,55.4l18.6-53.8c0.6-1.8,1-3.1,1-3.9
    c0-1.7-1-2.7-3-3.1v-1.6h14.4v1.6c-1.1,0-2.2,0.7-3.3,2.2c-1,1.5-1.8,3-2.4,4.8l-23.9,69.4h-4.7l-16.6-45.5
    c-1.4-3.6-3.2-8.8-5.5-15.6c-0.6-1.9-1.2-3.7-1.7-5.2c-1.4,4.1-2.7,8-3.9,11.7c-1.2,3.6-2.6,7.3-3.9,11.1l-15.2,43.5h-4.9L78,98.1
    c-0.6-1.9-1.4-3.6-2.4-4.9c-0.9-1.4-2.1-2.2-3.4-2.7v-1.6h16.9v1.6c-1.1,0-1.9,0.4-2.4,1.1c-0.5,0.7-0.7,1.6-0.7,2.7
    c0,0.7,0.1,1.4,0.3,2l19.8,55.5l19.4-55c0.5-1.5,0.7-2.6,0.7-3.2c0-1.3-0.9-2.3-2.6-3.1V88.9z"/>
  <path d="M197.1,88.9h52.1l4.5,11.3h-1.8c-1.2-1.5-2.7-2.7-4.5-3.5c-1.8-0.8-4.2-1.2-7.4-1.2h-30.5v24h35.2
    c1.1,0,2.2-0.4,3.2-1.1c1-0.7,1.6-1.7,1.7-2.7h1.5v14.1h-1.5c-0.6-2.5-2.2-3.7-4.9-3.7h-35.2v32.3h31.6c3.1,0,5.5-0.4,7.1-1.1
    s3.2-2,4.7-3.8h1.9l-4.5,11.4h-53v-1.6c1.1-0.3,2-0.8,2.7-1.6c0.7-0.8,1.1-1.6,1.1-2.5V96c0-2.8-1.3-4.6-4-5.5V88.9z"/>
  <path d="M340,88.9h16.3v1.6c-2.3,0.2-3.4,1-3.4,2.5c0,0.6,0.2,1.6,0.7,2.9l20.4,55.4l18.6-53.8c0.6-1.8,1-3.1,1-3.9
    c0-1.7-1-2.7-3-3.1v-1.6H405v1.6c-1.1,0-2.2,0.7-3.3,2.2c-1,1.5-1.8,3-2.4,4.8l-23.9,69.4h-4.7l-16.6-45.5
    c-1.4-3.6-3.2-8.8-5.5-15.6c-0.6-1.9-1.2-3.7-1.7-5.2c-1.4,4.1-2.7,8-3.9,11.7c-1.2,3.6-2.6,7.3-3.9,11.1L324,166.9h-4.9
    l-24.8-68.8c-0.6-1.9-1.4-3.6-2.4-4.9c-0.9-1.4-2.1-2.2-3.4-2.7v-1.6h16.9v1.6c-1.1,0-1.9,0.4-2.4,1.1c-0.5,0.7-0.7,1.6-0.7,2.7
    c0,0.7,0.1,1.4,0.3,2l19.8,55.5l19.4-55c0.5-1.5,0.7-2.6,0.7-3.2c0-1.3-0.9-2.3-2.6-3.1V88.9z"/>
  <path d="M434,86.8h3.6l33.9,71.5c0.7,1.6,1.4,2.8,2.2,3.6s1.7,1.2,2.7,1.4v1.6h-15.9v-1.6c1.6-0.4,2.5-1.3,2.5-2.6
    c0-1-0.4-2.2-1.1-3.6l-8.1-17.1h-37.3l-7.4,16.2c-0.9,1.9-1.3,3.2-1.3,4.2c0,1.4,0.9,2.4,2.6,3v1.6h-14.8v-1.6
    c1.4-0.4,2.5-1.1,3.2-1.9c0.7-0.8,1.4-2.1,2.2-3.9l0.4-0.9L434,86.8z M435.1,100.3l-15.6,33.3h31.5L435.1,100.3z"/>
  <path d="M468.4,88.9h67.9l5.6,11.1h-1.9c-1.1-1.4-2.5-2.5-4.2-3.3c-1.6-0.9-3.3-1.3-4.9-1.3h-24.3v62.3
    c0,1.4,0.3,2.6,1,3.6c0.7,1,1.7,1.7,3.2,2v1.6h-16.3v-1.6c2.4-0.7,3.6-2.2,3.6-4.5V95.5h-23c-2.4,0-4.5,0.4-6.3,1.3
    c-1.7,0.9-3.2,2-4.3,3.5h-1.8L468.4,88.9z"/>
  <path d="M621.7,144.9c-1.8,3.1-3.7,6-5.8,8.5c-2.1,2.5-4.6,4.8-7.4,6.9c-2.8,2.1-6,3.7-9.7,4.9s-7.7,1.8-12.2,1.8
    c-5.6,0-10.7-1.1-15.4-3.2c-4.7-2.1-8.8-5-12.3-8.8c-3.5-3.8-6.1-8.1-7.9-12.9c-1.8-4.8-2.7-10-2.7-15.3c0-5.6,1.1-10.8,3.2-15.8
    c2.1-5,4.8-9.2,8.2-12.5c3.4-3.4,7.3-6.1,11.7-8.2c4.5-2.1,9.5-3.2,15.1-3.2c4.3,0,8,0.5,11,1.5c3,1,5.8,2.2,8.6,3.6l0.2,0.1
    c1.7-1.4,2.9-2.5,3.6-3.3h1.6l4.3,18.6h-1.7c-3.1-4.8-7-8.4-11.7-10.8c-4.7-2.4-9.6-3.6-14.7-3.6c-4.1,0-7.9,0.7-11.3,2
    c-3.4,1.3-6.6,3.5-9.6,6.5c-3.4,3.4-5.8,7.1-7.3,11.3s-2.2,8.4-2.2,12.8c0,4.5,0.7,8.8,2.2,13.1c1.5,4.2,3.6,7.9,6.4,11.2
    c2.8,3.2,6.3,5.8,10.3,7.7c4.1,1.9,8.6,2.8,13.5,2.8c5.8,0,11.1-1.5,15.6-4.4c4.6-3,8.8-7.4,12.7-13.3L621.7,144.9z"/>
  <path d="M695.6,88.9H712v1.6c-1.3,0.3-2.3,0.9-2.9,1.7c-0.7,0.9-1,1.9-1,3v63c0,2.9,1.3,4.5,3.9,5v1.6h-16.3v-1.6
    c1.3-0.2,2.3-0.7,2.9-1.6c0.7-0.9,1-1.9,1-3v-33.2h-55.9v33c0,2.8,1.3,4.4,3.9,4.8v1.6h-16.2v-1.6c2.6-0.6,3.9-2,3.9-4.4V96.2
    c0-3-1.2-4.9-3.7-5.7v-1.6h16.2v1.6c-2.6,0.8-4,2.6-4,5.4v23.2h55.9V95.6c0-2.7-1.3-4.4-4-5V88.9z"/>
  <path d="M156.4,276.2c2.5,3.9,5.9,7,10.2,9.4c4.3,2.3,8.7,3.5,13.1,3.5c5.2,0,9.4-1.3,12.6-4c3.2-2.7,4.8-6.1,4.8-10.3
    c0-2.2-0.5-4.2-1.5-5.9c-1-1.7-2.3-3.3-4-4.7c-1.7-1.4-3.5-2.6-5.6-3.7c-2-1.1-4.6-2.4-7.7-3.9c-3.6-1.7-6.5-3.2-8.8-4.5
    c-2.3-1.3-4.4-2.8-6.4-4.5c-2-1.7-3.5-3.7-4.8-6c-1.2-2.3-1.8-4.9-1.8-7.9c0-5.1,1.9-9.4,5.7-12.8c3.8-3.4,9-5.1,15.7-5.1
    c4.1,0,7.4,0.4,10.1,1.2c2.6,0.8,5,1.8,7,3l2.6-3.2h1.6l3.1,16.3h-2c-2.7-3.6-5.9-6.4-9.6-8.2c-3.7-1.9-7.6-2.8-11.7-2.8
    c-4.6,0-8.3,1-10.9,3c-2.6,2-4,4.7-4,7.9c0,1.8,0.4,3.4,1.3,4.9c0.9,1.5,2.1,2.8,3.6,4c1.5,1.2,3.2,2.3,5,3.3
    c1.8,1,4.1,2.2,7.1,3.5c3.7,1.8,6.8,3.4,9.3,4.7c2.5,1.4,4.8,3,7,5c2.2,2,4,4.3,5.3,7c1.3,2.7,2,5.7,2,9.1c0,1.8-0.3,3.8-1,6.2
    c-0.7,2.3-1.9,4.6-3.6,6.9c-1.7,2.3-4.2,4.2-7.4,5.7c-3.2,1.5-7.2,2.3-11.9,2.3c-3.4,0-6.3-0.4-8.9-1.1c-2.6-0.7-5.2-1.8-7.8-3.2
    l-2.4,3.4h-1.7l-5.8-18.1L156.4,276.2z"/>
  <path d="M239.2,292.3c-5.2-2.4-9.5-5.6-12.9-9.5c-3.4-4-6-8.3-7.8-12.9c-1.7-4.7-2.6-9.3-2.6-13.8
    c0-5.6,1.1-10.9,3.2-15.9c2.1-5,5.1-9.5,8.9-13.3c3.8-3.8,8.3-6.8,13.4-8.9c5.1-2.1,10.6-3.2,16.5-3.2c6.1,0,11.7,1.1,16.8,3.4
    c5.1,2.2,9.4,5.3,12.9,9.1c3.6,3.9,6.3,8.2,8.1,13.1c1.9,4.9,2.8,9.8,2.8,14.8c0,5.4-1,10.6-3,15.6c-2,5-4.9,9.3-8.6,13.1
    c-3.7,3.8-8.1,6.7-13.3,8.9c-5.1,2.1-10.7,3.2-16.7,3.2C250.2,295.9,244.3,294.7,239.2,292.3z M270.9,287c4-1.8,7.4-4.1,10.2-6.8
    c3-3,5.2-6.4,6.7-10.2c1.5-3.8,2.2-8.2,2.2-13.4c0-3.9-0.8-7.9-2.4-12c-1.6-4.2-3.9-8-6.8-11.6c-3-3.6-6.6-6.4-10.8-8.6
    c-4.2-2.2-8.8-3.3-13.9-3.3c-3.6,0-7.3,0.7-11.1,2.1c-3.8,1.4-7.2,3.5-10.4,6.4c-3.1,2.8-5.7,6.2-7.5,10.2c-1.9,4-2.8,8.5-2.8,13.4
    s1,9.7,3,14.4c2,4.7,4.9,8.9,8.6,12.6c3.1,3.2,6.5,5.6,10.2,7.2c3.7,1.6,7.8,2.4,12.5,2.4C262.8,289.7,266.9,288.8,270.9,287z"/>
  <path d="M328.9,217.3h67.9l5.6,11.1h-1.9c-1.1-1.4-2.5-2.5-4.2-3.3c-1.6-0.9-3.3-1.3-4.9-1.3h-24.3v62.3
    c0,1.4,0.3,2.6,1,3.6c0.7,1,1.7,1.7,3.2,2v1.6H355v-1.6c2.4-0.7,3.6-2.2,3.6-4.5v-63.3h-23c-2.4,0-4.5,0.4-6.3,1.3
    c-1.7,0.9-3.2,2-4.3,3.5h-1.8L328.9,217.3z"/>
  <path d="M473.7,217.3H490v1.6c-1.3,0.3-2.3,0.9-2.9,1.7c-0.7,0.9-1,1.9-1,3v63c0,2.9,1.3,4.5,3.9,5v1.6h-16.3v-1.6
    c1.3-0.2,2.3-0.7,2.9-1.6c0.7-0.9,1-1.9,1-3v-33.2h-55.9v33c0,2.8,1.3,4.4,3.9,4.8v1.6h-16.2v-1.6c2.6-0.6,3.9-2,3.9-4.4v-62.7
    c0-3-1.2-4.9-3.7-5.7v-1.6h16.2v1.6c-2.6,0.8-4,2.6-4,5.4v23.2h55.9V224c0-2.7-1.3-4.4-4-5V217.3z"/>
  <path d="M503,217.3h52.1l4.5,11.3h-1.8c-1.2-1.5-2.7-2.7-4.5-3.5c-1.8-0.8-4.2-1.2-7.4-1.2h-30.5v24h35.2
    c1.1,0,2.2-0.4,3.2-1.1c1-0.7,1.6-1.7,1.7-2.7h1.5v14.1h-1.5c-0.6-2.5-2.2-3.7-4.9-3.7h-35.2v32.3H547c3.1,0,5.5-0.4,7.1-1.1
    c1.6-0.7,3.2-2,4.7-3.8h1.9l-4.5,11.4h-53v-1.6c1.1-0.3,2-0.8,2.7-1.6c0.7-0.8,1.1-1.6,1.1-2.5v-63.2c0-2.8-1.3-4.6-4-5.5V217.3z"
    />
  <path d="M567.2,217.3h17.8v1.6c-1.8,0.4-2.7,1.1-2.7,2.2c0,0.6,0.3,1.3,0.9,2l22.1,30.2l20-28.7
    c0.9-1.4,1.4-2.6,1.4-3.6c0-0.6-0.2-1.2-0.6-1.6c-0.4-0.4-1.1-0.6-2.1-0.6v-1.6h16v1.6c-1.4,0.3-2.7,1.1-4,2.3
    c-1.3,1.2-2.5,2.6-3.5,4.1l-24.2,35.2v26.1c0,1.4,0.4,2.5,1.1,3.4c0.7,0.9,1.7,1.4,2.8,1.7v1.6h-16.2v-1.6c1.1-0.4,2-1,2.7-1.9
    c0.7-0.9,1-1.8,1-2.8v-27.3l-26-35.4l-0.1-0.1c-1.3-1.7-2.4-3-3.4-3.9c-1-0.9-2-1.3-3.2-1.3V217.3z"/>
  <path d="M91.2,345.7h31.1c2.4,0,4.9,0.4,7.4,1.1c2.5,0.7,4.9,1.9,7,3.5c2.1,1.6,3.9,3.6,5.2,6c1.3,2.5,2,5.3,2,8.6
    c0,6.1-2,10.8-6,14c-4,3.2-9.6,5-16.7,5.2c3.2,1.8,6,3.6,8.4,5.6c2.4,1.9,4.6,4,6.6,6.3c2,2.2,3.9,4.7,5.6,7.3
    c1.7,2.6,3.6,5.7,5.5,9.3c1.4,2.4,2.5,4.2,3.4,5.4c0.9,1.1,1.9,1.8,2.9,2v1.6h-17.3v-1.6c1.1-0.2,1.8-0.6,2.2-1.2
    c0.4-0.6,0.6-1.3,0.6-2.1c0-1.9-0.9-4.5-2.6-7.7c-1.7-3.2-4.1-6.6-7.1-10.1c-3-3.5-6.4-6.6-10.1-9.4c-3.7-2.7-7.5-4.7-11.4-5.8
    v-4.7h8.3c7.3,0,12.5-1.6,15.6-4.7c2.4-2.3,3.5-5.3,3.5-9.2c0-4-1.5-7.2-4.6-9.5c-3.1-2.3-7.1-3.5-12.1-3.5h-15V414
    c0,1.7,0.3,3.1,0.9,4.3c0.6,1.1,1.6,1.7,3,1.8v1.6H91.3v-1.6c2.6-0.6,3.9-2.5,3.9-5.6v-61.2c0-3.4-1.3-5.4-4-6V345.7z"/>
  <path d="M160.6,345.7h52.1l4.5,11.3h-1.8c-1.2-1.5-2.7-2.7-4.5-3.5c-1.8-0.8-4.2-1.2-7.4-1.2H173v24h35.2
    c1.1,0,2.2-0.4,3.2-1.1c1-0.7,1.6-1.7,1.7-2.7h1.5v14.1h-1.5c-0.6-2.5-2.2-3.7-4.9-3.7H173v32.3h31.6c3.1,0,5.5-0.4,7.1-1.1
    s3.2-2,4.7-3.8h1.9l-4.5,11.4h-53v-1.6c1.1-0.3,2-0.8,2.7-1.6c0.7-0.8,1.1-1.6,1.1-2.5v-63.2c0-2.8-1.3-4.6-4-5.5V345.7z"/>
  <path d="M299.4,345.7h16.7v1.6c-1.6,0.1-2.8,0.6-3.4,1.4c-0.6,0.8-1,2-1,3.5c0,0.1,0,0.4,0.1,0.9c0,0.6,0,0.9,0,1.1
    l4.1,59.2c0.1,2.4,0.5,4,1.2,4.9c0.6,0.9,1.7,1.5,3.2,1.8v1.6h-16.6v-1.6c1.4-0.3,2.4-0.9,3-1.7c0.6-0.9,0.9-2.1,0.9-3.9
    c0-0.3,0-0.6-0.1-0.9c0-0.4,0-0.7,0-1l-4.3-59.4l-28.7,57.8h-1.7L243.4,354l-3.7,58.3c0,0.4,0,0.7,0,1l-0.1,0.9
    c0,2,0.3,3.4,0.9,4.3c0.6,0.9,1.5,1.4,2.9,1.7v1.6h-14.6v-1.6c2.6-0.6,4.1-2.4,4.3-5.3l3.7-59.4c0-0.3,0-0.7,0-1.2
    c0.1-0.4,0.1-0.7,0.1-1.1c0-1.8-0.3-3.1-1-4.1c-0.6-0.9-1.9-1.5-3.9-1.7v-1.6H249l25.5,50.4L299.4,345.7z"/>
  <path d="M331.2,345.7h52.1l4.5,11.3H386c-1.2-1.5-2.7-2.7-4.5-3.5c-1.8-0.8-4.2-1.2-7.4-1.2h-30.5v24h35.2
    c1.1,0,2.2-0.4,3.2-1.1c1-0.7,1.6-1.7,1.7-2.7h1.5v14.1h-1.5c-0.6-2.5-2.2-3.7-4.9-3.7h-35.2v32.3h31.6c3.1,0,5.5-0.4,7.1-1.1
    s3.2-2,4.7-3.8h1.9l-4.5,11.4h-53v-1.6c1.1-0.3,2-0.8,2.7-1.6c0.7-0.8,1.1-1.6,1.1-2.5v-63.2c0-2.8-1.3-4.6-4-5.5V345.7z"/>
  <path d="M470,345.7h16.7v1.6c-1.6,0.1-2.8,0.6-3.4,1.4c-0.6,0.8-1,2-1,3.5c0,0.1,0,0.4,0.1,0.9c0,0.6,0,0.9,0,1.1
    l4.1,59.2c0.1,2.4,0.5,4,1.2,4.9c0.6,0.9,1.7,1.5,3.2,1.8v1.6h-16.6v-1.6c1.4-0.3,2.4-0.9,3-1.7c0.6-0.9,0.9-2.1,0.9-3.9
    c0-0.3,0-0.6-0.1-0.9c0-0.4,0-0.7,0-1l-4.3-59.4L445,411.1h-1.7L414,354l-3.7,58.3c0,0.4,0,0.7,0,1l-0.1,0.9c0,2,0.3,3.4,0.9,4.3
    c0.6,0.9,1.5,1.4,2.9,1.7v1.6h-14.6v-1.6c2.6-0.6,4.1-2.4,4.3-5.3l3.7-59.4c0-0.3,0-0.7,0-1.2c0.1-0.4,0.1-0.7,0.1-1.1
    c0-1.8-0.3-3.1-1-4.1c-0.6-0.9-1.9-1.5-3.9-1.7v-1.6h16.9l25.5,50.4L470,345.7z"/>
  <path d="M502.3,345.8h28.9c3,0,5.8,0.3,8.6,0.9c2.7,0.6,5.2,1.5,7.3,2.8c2.2,1.3,3.9,3,5.2,5.2
    c1.3,2.2,1.9,4.9,1.9,8.1c0,5.1-1.5,8.9-4.4,11.6c-2.9,2.7-7,4.4-12.1,5.3c6.6,0.4,11.9,2.4,15.9,6c4.1,3.7,6.1,8.5,6.1,14.6
    c0,6.6-2.2,11.8-6.7,15.6c-4.5,3.8-10,5.7-16.6,5.7h-33.7v-1.5c1.1-0.3,1.9-0.8,2.6-1.6c0.7-0.8,1-1.7,1-2.8v-63.5
    c0-1.3-0.4-2.4-1.1-3.3c-0.7-0.9-1.7-1.4-2.9-1.7L502.3,345.8z M514.8,415.2h17.9c4.1,0,7.5-0.5,10-1.6c2.5-1.1,4.4-2.4,5.6-4
    c1.2-1.6,2-3.2,2.3-4.7c0.3-1.5,0.5-3.1,0.5-4.7c0-4.1-1-7.5-2.9-10c-2-2.5-4.3-4.3-7.1-5.4c-2.8-1.1-5.4-1.8-7.8-2
    c-2.4-0.2-4.7-0.4-6.9-0.4h-7.5v-5.1h7.9c2.4,0,4.7-0.2,7-0.6c2.2-0.4,4.2-1.1,6.1-2.1c1.9-1,3.3-2.4,4.4-4.2
    c1.1-1.8,1.7-4,1.7-6.6c0-2.2-0.5-4.1-1.4-5.6c-0.9-1.5-2.2-2.7-3.7-3.5c-1.5-0.9-3.2-1.5-5.1-1.8c-1.9-0.4-3.9-0.5-5.9-0.5h-15
    V415.2z"/>
  <path d="M570.9,345.7H623l4.5,11.3h-1.8c-1.2-1.5-2.7-2.7-4.5-3.5c-1.8-0.8-4.2-1.2-7.4-1.2h-30.5v24h35.2
    c1.1,0,2.2-0.4,3.2-1.1c1-0.7,1.6-1.7,1.7-2.7h1.5v14.1h-1.5c-0.6-2.5-2.2-3.7-4.9-3.7h-35.2v32.3h31.6c3.1,0,5.5-0.4,7.1-1.1
    c1.6-0.7,3.2-2,4.7-3.8h1.9l-4.5,11.4h-53v-1.6c1.1-0.3,2-0.8,2.7-1.6c0.7-0.8,1.1-1.6,1.1-2.5v-63.2c0-2.8-1.3-4.6-4-5.5V345.7z"
    />
  <path d="M641.8,345.7h31.1c2.4,0,4.9,0.4,7.4,1.1c2.5,0.7,4.9,1.9,7,3.5c2.1,1.6,3.9,3.6,5.2,6c1.3,2.5,2,5.3,2,8.6
    c0,6.1-2,10.8-6,14c-4,3.2-9.6,5-16.7,5.2c3.2,1.8,6,3.6,8.4,5.6c2.4,1.9,4.6,4,6.6,6.3c2,2.2,3.9,4.7,5.6,7.3
    c1.7,2.6,3.6,5.7,5.5,9.3c1.4,2.4,2.5,4.2,3.4,5.4c0.9,1.1,1.9,1.8,2.9,2v1.6h-17.3v-1.6c1.1-0.2,1.8-0.6,2.2-1.2
    c0.4-0.6,0.6-1.3,0.6-2.1c0-1.9-0.9-4.5-2.6-7.7c-1.7-3.2-4.1-6.6-7.1-10.1c-3-3.5-6.4-6.6-10.1-9.4c-3.7-2.7-7.5-4.7-11.4-5.8
    v-4.7h8.3c7.3,0,12.5-1.6,15.6-4.7c2.4-2.3,3.5-5.3,3.5-9.2c0-4-1.5-7.2-4.6-9.5c-3.1-2.3-7.1-3.5-12.1-3.5h-15V414
    c0,1.7,0.3,3.1,0.9,4.3c0.6,1.1,1.6,1.7,3,1.8v1.6h-16.2v-1.6c2.6-0.6,3.9-2.5,3.9-5.6v-61.2c0-3.4-1.3-5.4-4-6V345.7z"/>
</g>
<g>
  <path d="M299.5,547.5c0.3,0.3,0.5,0.8,0.5,1.5c0,0.6-0.2,1.1-0.5,1.4c-0.4,0.3-0.9,0.4-1.5,0.4c-0.7,0-1.2-0.2-1.6-0.5
    c-0.3-0.3-0.5-0.8-0.5-1.5c0-0.6,0.2-1,0.5-1.4c0.3-0.3,0.8-0.5,1.5-0.5C298.7,547,299.2,547.2,299.5,547.5z"/>
  <path d="M320.3,553.7c-0.8,0.7-1.7,1.3-2.7,1.6c-0.9,0.4-1.9,0.5-2.9,0.5c-1.1,0-2.2-0.2-3.1-0.6
    c-0.9-0.4-1.7-0.9-2.4-1.6c-0.6-0.7-1.1-1.5-1.5-2.4c-0.3-0.9-0.5-1.8-0.5-2.8c0-1,0.2-2,0.5-2.9s0.9-1.7,1.6-2.4
    c0.7-0.7,1.5-1.2,2.4-1.6c0.9-0.4,1.9-0.6,3-0.6c0.8,0,1.5,0.1,2.1,0.3s1.2,0.4,1.7,0.8c0.2-0.2,0.3-0.4,0.4-0.7h0.4l0.7,3.3
    l-0.3,0c-0.7-0.9-1.4-1.5-2.3-2c-0.9-0.4-1.7-0.7-2.6-0.7c-0.8,0-1.6,0.2-2.3,0.5c-0.7,0.3-1.3,0.8-1.8,1.4c-0.5,0.6-0.9,1.3-1.2,2
    c-0.3,0.8-0.4,1.6-0.4,2.4c0,0.9,0.2,1.8,0.5,2.5c0.3,0.8,0.7,1.4,1.3,2c0.6,0.6,1.2,1,1.9,1.3c0.7,0.3,1.5,0.5,2.2,0.5
    c1.3,0,2.6-0.4,3.8-1.2v-4.1c0-0.5-0.2-0.9-0.7-1v-0.3h3.1v0.3c-0.2,0.1-0.4,0.2-0.5,0.3s-0.2,0.4-0.2,0.6V553.7z"/>
  <path d="M333.1,541.3h2.9v0.3c-0.5,0.1-0.8,0.5-0.8,1v7.6c0,1.7-0.5,3.1-1.6,4.1c-1,1-2.5,1.6-4.2,1.6
    c-0.7,0-1.5-0.1-2.2-0.3c-0.7-0.2-1.4-0.5-1.9-1c-0.6-0.5-1-1.1-1.4-1.9c-0.3-0.8-0.5-1.8-0.5-2.9v-7.2c0-0.5-0.2-0.8-0.7-1v-0.3
    h3.1v0.3c-0.3,0.1-0.5,0.2-0.6,0.4s-0.2,0.4-0.2,0.7v6.9c0,1.7,0.4,3,1.2,3.8c0.4,0.4,0.9,0.7,1.5,1c0.6,0.2,1.3,0.3,2,0.3
    c0.6,0,1.2-0.1,1.7-0.3c0.5-0.2,1-0.5,1.3-0.8c0.4-0.4,0.8-0.9,0.9-1.5c0.2-0.5,0.3-1.2,0.3-2v-7.5c0-0.5-0.3-0.9-0.8-1V541.3z"/>
  <path d="M338.3,541.3h3v0.3c-0.5,0.1-0.7,0.4-0.7,0.9v11.7c0,0.5,0.2,0.9,0.7,1v0.3h-3v-0.3c0.5-0.2,0.7-0.5,0.7-0.9
    v-11.7c0-0.3-0.1-0.5-0.2-0.7c-0.1-0.2-0.3-0.3-0.6-0.4V541.3z"/>
  <path d="M343.7,541.3h3.1v0.3c-0.5,0.1-0.7,0.5-0.7,1v11.7h5.8c0.6,0,1-0.1,1.3-0.3c0.3-0.2,0.6-0.5,0.9-0.8h0.3
    l-0.6,2.3h-10v-0.3c0.2,0,0.3-0.1,0.5-0.3c0.1-0.1,0.2-0.3,0.2-0.5v-12c0-0.5-0.2-0.8-0.7-0.9V541.3z"/>
  <path d="M352.8,541.3h12.7l1,2.1h-0.4c-0.2-0.3-0.5-0.5-0.8-0.6s-0.6-0.2-0.9-0.2H360v11.6c0,0.3,0.1,0.5,0.2,0.7
    c0.1,0.2,0.3,0.3,0.6,0.4v0.3h-3v-0.3c0.5-0.1,0.7-0.4,0.7-0.8v-11.8h-4.3c-0.5,0-0.8,0.1-1.2,0.2s-0.6,0.4-0.8,0.7h-0.3
    L352.8,541.3z"/>
  <path d="M366.8,541.3h3.3v0.3c-0.3,0.1-0.5,0.2-0.5,0.4c0,0.1,0.1,0.2,0.2,0.4l4.1,5.6l3.7-5.4
    c0.2-0.3,0.3-0.5,0.3-0.7c0-0.1,0-0.2-0.1-0.3s-0.2-0.1-0.4-0.1v-0.3h3v0.3c-0.3,0.1-0.5,0.2-0.8,0.4c-0.2,0.2-0.5,0.5-0.7,0.8
    l-4.5,6.6v4.9c0,0.3,0.1,0.5,0.2,0.6c0.1,0.2,0.3,0.3,0.5,0.3v0.3h-3v-0.3c0.2-0.1,0.4-0.2,0.5-0.4c0.1-0.2,0.2-0.3,0.2-0.5v-5.1
    l-4.9-6.6l0,0c-0.2-0.3-0.4-0.6-0.6-0.7c-0.2-0.2-0.4-0.2-0.6-0.2V541.3z"/>
  <path d="M386.6,541.3h5.8c0.5,0,0.9,0.1,1.4,0.2c0.5,0.1,0.9,0.4,1.3,0.7s0.7,0.7,1,1.1c0.2,0.5,0.4,1,0.4,1.6
    c0,1.1-0.4,2-1.1,2.6c-0.8,0.6-1.8,0.9-3.1,1c0.6,0.3,1.1,0.7,1.6,1s0.9,0.8,1.2,1.2c0.4,0.4,0.7,0.9,1,1.4c0.3,0.5,0.7,1.1,1,1.7
    c0.3,0.5,0.5,0.8,0.6,1c0.2,0.2,0.3,0.3,0.5,0.4v0.3H395v-0.3c0.2,0,0.3-0.1,0.4-0.2c0.1-0.1,0.1-0.2,0.1-0.4
    c0-0.4-0.2-0.8-0.5-1.4c-0.3-0.6-0.8-1.2-1.3-1.9s-1.2-1.2-1.9-1.8c-0.7-0.5-1.4-0.9-2.1-1.1v-0.9h1.6c1.4,0,2.3-0.3,2.9-0.9
    c0.4-0.4,0.7-1,0.7-1.7c0-0.7-0.3-1.3-0.9-1.8c-0.6-0.4-1.3-0.7-2.3-0.7h-2.8v11.5c0,0.3,0.1,0.6,0.2,0.8c0.1,0.2,0.3,0.3,0.6,0.3
    v0.3h-3v-0.3c0.5-0.1,0.7-0.5,0.7-1v-11.4c0-0.6-0.2-1-0.7-1.1V541.3z"/>
  <path d="M399.6,541.3h9.7l0.8,2.1h-0.3c-0.2-0.3-0.5-0.5-0.8-0.7c-0.3-0.2-0.8-0.2-1.4-0.2h-5.7v4.5h6.6
    c0.2,0,0.4-0.1,0.6-0.2c0.2-0.1,0.3-0.3,0.3-0.5h0.3v2.6h-0.3c-0.1-0.5-0.4-0.7-0.9-0.7h-6.6v6h5.9c0.6,0,1-0.1,1.3-0.2
    c0.3-0.1,0.6-0.4,0.9-0.7h0.4l-0.8,2.1h-9.9v-0.3c0.2-0.1,0.4-0.2,0.5-0.3c0.1-0.1,0.2-0.3,0.2-0.5v-11.8c0-0.5-0.2-0.9-0.7-1
    V541.3z"/>
  <path d="M425.5,541.3h3.1v0.3c-0.3,0-0.5,0.1-0.6,0.3s-0.2,0.4-0.2,0.7c0,0,0,0.1,0,0.2c0,0.1,0,0.2,0,0.2l0.8,11.1
    c0,0.4,0.1,0.7,0.2,0.9c0.1,0.2,0.3,0.3,0.6,0.3v0.3h-3.1v-0.3c0.3-0.1,0.5-0.2,0.6-0.3c0.1-0.2,0.2-0.4,0.2-0.7c0-0.1,0-0.1,0-0.2
    c0-0.1,0-0.1,0-0.2l-0.8-11.1l-5.4,10.8h-0.3l-5.5-10.7l-0.7,10.9c0,0.1,0,0.1,0,0.2l0,0.2c0,0.4,0.1,0.6,0.2,0.8
    c0.1,0.2,0.3,0.3,0.5,0.3v0.3h-2.7v-0.3c0.5-0.1,0.8-0.4,0.8-1l0.7-11.1c0-0.1,0-0.1,0-0.2c0-0.1,0-0.1,0-0.2
    c0-0.3-0.1-0.6-0.2-0.8c-0.1-0.2-0.4-0.3-0.7-0.3v-0.3h3.2l4.8,9.4L425.5,541.3z"/>
  <path d="M431.5,541.3h2.5l9.9,11.1v-9.9c0-0.3-0.1-0.4-0.2-0.6c-0.1-0.1-0.3-0.2-0.6-0.3v-0.3h2.8v0.3
    c-0.5,0.1-0.8,0.4-0.8,1v12.9h-0.5l-11-12.3V554c0,0.8,0.3,1.2,0.9,1.3v0.3h-2.9v-0.3c0.2,0,0.4-0.1,0.6-0.3
    c0.1-0.1,0.2-0.3,0.2-0.6v-11.7c0-0.3-0.1-0.5-0.2-0.7c-0.1-0.2-0.3-0.3-0.7-0.4V541.3z"/>
  <path d="M454.7,540.9h0.7l6.3,13.4c0.1,0.3,0.3,0.5,0.4,0.7c0.1,0.1,0.3,0.2,0.5,0.3v0.3h-3v-0.3
    c0.3-0.1,0.5-0.2,0.5-0.5c0-0.2-0.1-0.4-0.2-0.7l-1.5-3.2h-7l-1.4,3c-0.2,0.3-0.2,0.6-0.2,0.8c0,0.3,0.2,0.4,0.5,0.6v0.3h-2.8v-0.3
    c0.3-0.1,0.5-0.2,0.6-0.4c0.1-0.2,0.3-0.4,0.4-0.7l0.1-0.2L454.7,540.9z M454.9,543.4l-2.9,6.2h5.9L454.9,543.4z"/>
  <path d="M464,541.3h2.5l9.9,11.1v-9.9c0-0.3-0.1-0.4-0.2-0.6c-0.1-0.1-0.3-0.2-0.6-0.3v-0.3h2.8v0.3
    c-0.5,0.1-0.8,0.4-0.8,1v12.9H477l-11-12.3V554c0,0.8,0.3,1.2,0.9,1.3v0.3h-2.9v-0.3c0.2,0,0.4-0.1,0.5-0.3s0.2-0.3,0.2-0.6v-11.7
    c0-0.3-0.1-0.5-0.2-0.7c-0.1-0.2-0.3-0.3-0.7-0.4V541.3z"/>
  <path d="M480.8,541.3h12.7l1,2.1h-0.4c-0.2-0.3-0.5-0.5-0.8-0.6s-0.6-0.2-0.9-0.2h-4.5v11.6c0,0.3,0.1,0.5,0.2,0.7
    s0.3,0.3,0.6,0.4v0.3h-3v-0.3c0.5-0.1,0.7-0.4,0.7-0.8v-11.8H482c-0.5,0-0.8,0.1-1.2,0.2c-0.3,0.2-0.6,0.4-0.8,0.7h-0.3
    L480.8,541.3z"/>
  <path d="M504.5,547.5c0.3,0.3,0.5,0.8,0.5,1.5c0,0.6-0.2,1.1-0.5,1.4c-0.4,0.3-0.9,0.4-1.5,0.4c-0.7,0-1.2-0.2-1.6-0.5
    c-0.3-0.3-0.5-0.8-0.5-1.5c0-0.6,0.2-1,0.5-1.4c0.3-0.3,0.8-0.5,1.5-0.5C503.7,547,504.2,547.2,504.5,547.5z"/>
</g>
</svg>
